<mxfile host="app.diagrams.net" modified="2023-09-13T14:04:45.744Z" agent="Mozilla/5.0 (X11; Linux x86_64) AppleWebKit/537.36 (KHTML, like Gecko) Chrome/114.0.0.0 Safari/537.36" etag="z6LfEfWoUOuHgQjLJyu7" version="21.7.4" type="device">
  <diagram id="-Kegu3x4Kq4TtlcAsU5u" name="Page-1">
    <mxGraphModel dx="2261" dy="803" grid="1" gridSize="10" guides="1" tooltips="1" connect="1" arrows="1" fold="1" page="1" pageScale="1" pageWidth="827" pageHeight="1169" math="0" shadow="0">
      <root>
        <mxCell id="0" />
        <mxCell id="1" parent="0" />
        <UserObject label="" plantUmlData="{&quot;data&quot;:&quot;@startuml\n\nentity \&quot;User\&quot; as User {\n  + &lt;u&gt;id&lt;/u&gt;: int\n  + username: string\n  + password: string\n  + email: string\n  + first_name: string\n  + last_name: string\n}\n\nentity \&quot;Profile\&quot; as Profile {\n  + &lt;u&gt;id&lt;/u&gt;: int\n  + account_type: string\n  + phone: string\n  + address: string\n  + profile_pic: string\n  --\n  + user_id: int\n}\n\nentity \&quot;Division\&quot; as Division {\n  + &lt;u&gt;id&lt;/u&gt;: int\n  + name: string\n}\n\nentity \&quot;City\&quot; as City {\n  + &lt;u&gt;id&lt;/u&gt;: int\n  + name: string\n  --\n  + division_id: int\n}\n\nentity \&quot;PropertyType\&quot; as PropertyType {\n  + &lt;u&gt;id&lt;/u&gt;: int\n  + name: string\n  + plural_name: string\n}\n\nentity \&quot;Property\&quot; as Property {\n  + &lt;u&gt;id&lt;/u&gt;: int\n  + title: string\n  + description: string\n  + price: int\n  + area: string\n  + bedrooms: int\n  + bathrooms: int\n  + garages: int\n  + address: string\n  + is_booked: boolean\n  + list_date: datetime\n  + status: string\n  --\n  + owner_id: int\n  + agent_id: int\n  + property_type_id: int\n  + city_id: int\n  + division_id: int\n}\n\nentity \&quot;PropertyImage\&quot; as PropertyImage {\n  + &lt;u&gt;id&lt;/u&gt;: int\n  + image: string\n  --\n  + property_id: int\n}\n\nentity \&quot;PropertyBooking\&quot; as PropertyBooking {\n  + &lt;u&gt;id&lt;/u&gt;: int\n  + status: string\n  + visit_date: date\n  + visit_time: time\n  + created_at: datetime\n  --\n  + property_id: int\n  + buyer_id: int\n}\n\nentity \&quot;Payment\&quot; as Payment {\n  + &lt;u&gt;id&lt;/u&gt;: int\n  + payment_status: string\n  + payment_method: string\n  + transaction_id: string\n  + cheque_no: string\n  + account_no: string\n  + amount: int\n  --\n  + booking_id: int\n}\n\nentity \&quot;PropertyComplain\&quot; as PropertyComplain {\n  + &lt;u&gt;id&lt;/u&gt;: int\n  + complain: string\n  + response: string\n  + is_answered: boolean\n  --\n  + property_id: int\n  + user_id: int\n}\n\nentity \&quot;PropertyEnquiry\&quot; as PropertyEnquiry {\n  + &lt;u&gt;id&lt;/u&gt;: int\n  + message: string\n  + answer: string\n  + created_at: datetime\n  + is_answered: boolean\n  --\n  + property_id: int\n  + buyer_id: int\n}\n\nentity \&quot;Contact\&quot; as Contact {\n  + &lt;u&gt;id&lt;/u&gt;: int\n  + email: string\n  + subject: string\n  + message: string\n  + date: datetime\n  + response: string\n}\n\nUser ||--|| Profile\nDivision ||--o{ City\nCity ||--o{ Property\nPropertyType ||--o{ Property\nProperty ||--o{ PropertyImage\nProperty ||--o{ PropertyBooking\nPropertyBooking ||--o{ Payment\nProperty ||--o{ PropertyComplain\nProperty ||--o{ PropertyEnquiry\nProfile ||--o{ PropertyBooking : buyer_id\n\n@enduml\n&quot;,&quot;format&quot;:&quot;svg&quot;}" id="psT7bryfoklcvo8p01Q9-1">
          <mxCell style="shape=image;noLabel=1;verticalAlign=top;aspect=fixed;imageAspect=0;image=data:image/svg+xml,PD94bWwgdmVyc2lvbj0iMS4wIiBlbmNvZGluZz0idXMtYXNjaWkiIHN0YW5kYWxvbmU9Im5vIj8+PHN2ZyB4bWxucz0iaHR0cDovL3d3dy53My5vcmcvMjAwMC9zdmciIHhtbG5zOnhsaW5rPSJodHRwOi8vd3d3LnczLm9yZy8xOTk5L3hsaW5rIiBjb250ZW50U3R5bGVUeXBlPSJ0ZXh0L2NzcyIgaGVpZ2h0PSIxMTcxcHgiIHByZXNlcnZlQXNwZWN0UmF0aW89Im5vbmUiIHN0eWxlPSJ3aWR0aDo3NjZweDtoZWlnaHQ6MTE3MXB4O2JhY2tncm91bmQ6I0ZGRkZGRjsiIHZlcnNpb249IjEuMSIgdmlld0JveD0iMCAwIDc2NiAxMTcxIiB3aWR0aD0iNzY2cHgiIHpvb21BbmRQYW49Im1hZ25pZnkiPjxkZWZzLz48Zz48IS0tY2xhc3MgVXNlci0tPjxnIGlkPSJlbGVtX1VzZXIiPjxyZWN0IGNvZGVMaW5lPSIxIiBmaWxsPSIjRjFGMUYxIiBoZWlnaHQ9IjEzNy45MDYzIiBpZD0iVXNlciIgcng9IjIuNSIgcnk9IjIuNSIgc3R5bGU9InN0cm9rZTojMTgxODE4O3N0cm9rZS13aWR0aDowLjU7IiB3aWR0aD0iMTUzIiB4PSIyMS41IiB5PSIyMDYiLz48ZWxsaXBzZSBjeD0iNzkuNzUiIGN5PSIyMjIiIGZpbGw9IiNBREQxQjIiIHJ4PSIxMSIgcnk9IjExIiBzdHlsZT0ic3Ryb2tlOiMxODE4MTg7c3Ryb2tlLXdpZHRoOjEuMDsiLz48cGF0aCBkPSJNODMuMzc1LDIyOCBMODMuMzc1LDIyNi4yNSBMNzguMDYyNSwyMjYuMjUgUTc4LjA2MjUsMjI2LjI1IDc4LjA2MjUsMjIyLjY4NzUgTDgyLjMxMjUsMjIyLjY4NzUgTDgyLjMxMjUsMjIwLjkzNzUgTDc4LjA2MjUsMjIwLjkzNzUgTDc4LjA2MjUsMjE4LjQzNzUgTDgzLjM3NSwyMTguNDM3NSBMODMuMzc1LDIxNi42ODc1IEw3Ni4zMTI1LDIxNi42ODc1IFE3Ni4zMTI1LDIxNi42ODc1IDc2LjMxMjUsMjI4IEw4My4zNzUsMjI4IFogIiBmaWxsPSIjMDAwMDAwIi8+PHRleHQgZmlsbD0iIzAwMDAwMCIgZm9udC1mYW1pbHk9InNhbnMtc2VyaWYiIGZvbnQtc2l6ZT0iMTQiIGxlbmd0aEFkanVzdD0ic3BhY2luZyIgdGV4dExlbmd0aD0iMjgiIHg9IjEwMC4yNSIgeT0iMjI3Ljc0MjIiPlVzZXI8L3RleHQ+PGxpbmUgc3R5bGU9InN0cm9rZTojMTgxODE4O3N0cm9rZS13aWR0aDowLjU7IiB4MT0iMjIuNSIgeDI9IjE3My41IiB5MT0iMjM4IiB5Mj0iMjM4Ii8+PGVsbGlwc2UgY3g9IjMyLjUiIGN5PSIyNTAuOTkyMiIgZmlsbD0ibm9uZSIgcng9IjMiIHJ5PSIzIiBzdHlsZT0ic3Ryb2tlOiMwMzgwNDg7c3Ryb2tlLXdpZHRoOjEuMDsiLz48dGV4dCBmaWxsPSIjMDAwMDAwIiBmb250LWZhbWlseT0ic2Fucy1zZXJpZiIgZm9udC1zaXplPSIxNCIgbGVuZ3RoQWRqdXN0PSJzcGFjaW5nIiB0ZXh0LWRlY29yYXRpb249InVuZGVybGluZSIgdGV4dExlbmd0aD0iMTQiIHg9IjQxLjUiIHk9IjI1NS4yMzQ0Ij5pZDwvdGV4dD48dGV4dCBmaWxsPSIjMDAwMDAwIiBmb250LWZhbWlseT0ic2Fucy1zZXJpZiIgZm9udC1zaXplPSIxNCIgbGVuZ3RoQWRqdXN0PSJzcGFjaW5nIiB0ZXh0TGVuZ3RoPSIzNSIgeD0iNTUuNSIgeT0iMjU1LjIzNDQiPjogaW50PC90ZXh0PjxlbGxpcHNlIGN4PSIzMi41IiBjeT0iMjY1Ljk3NjYiIGZpbGw9Im5vbmUiIHJ4PSIzIiByeT0iMyIgc3R5bGU9InN0cm9rZTojMDM4MDQ4O3N0cm9rZS13aWR0aDoxLjA7Ii8+PHRleHQgZmlsbD0iIzAwMDAwMCIgZm9udC1mYW1pbHk9InNhbnMtc2VyaWYiIGZvbnQtc2l6ZT0iMTQiIGxlbmd0aEFkanVzdD0ic3BhY2luZyIgdGV4dExlbmd0aD0iMTEzIiB4PSI0MS41IiB5PSIyNzAuMjE4OCI+dXNlcm5hbWU6IHN0cmluZzwvdGV4dD48ZWxsaXBzZSBjeD0iMzIuNSIgY3k9IjI4MC45NjA5IiBmaWxsPSJub25lIiByeD0iMyIgcnk9IjMiIHN0eWxlPSJzdHJva2U6IzAzODA0ODtzdHJva2Utd2lkdGg6MS4wOyIvPjx0ZXh0IGZpbGw9IiMwMDAwMDAiIGZvbnQtZmFtaWx5PSJzYW5zLXNlcmlmIiBmb250LXNpemU9IjE0IiBsZW5ndGhBZGp1c3Q9InNwYWNpbmciIHRleHRMZW5ndGg9IjExMyIgeD0iNDEuNSIgeT0iMjg1LjIwMzEiPnBhc3N3b3JkOiBzdHJpbmc8L3RleHQ+PGVsbGlwc2UgY3g9IjMyLjUiIGN5PSIyOTUuOTQ1MyIgZmlsbD0ibm9uZSIgcng9IjMiIHJ5PSIzIiBzdHlsZT0ic3Ryb2tlOiMwMzgwNDg7c3Ryb2tlLXdpZHRoOjEuMDsiLz48dGV4dCBmaWxsPSIjMDAwMDAwIiBmb250LWZhbWlseT0ic2Fucy1zZXJpZiIgZm9udC1zaXplPSIxNCIgbGVuZ3RoQWRqdXN0PSJzcGFjaW5nIiB0ZXh0TGVuZ3RoPSI5MiIgeD0iNDEuNSIgeT0iMzAwLjE4NzUiPmVtYWlsOiBzdHJpbmc8L3RleHQ+PGVsbGlwc2UgY3g9IjMyLjUiIGN5PSIzMTAuOTI5NyIgZmlsbD0ibm9uZSIgcng9IjMiIHJ5PSIzIiBzdHlsZT0ic3Ryb2tlOiMwMzgwNDg7c3Ryb2tlLXdpZHRoOjEuMDsiLz48dGV4dCBmaWxsPSIjMDAwMDAwIiBmb250LWZhbWlseT0ic2Fucy1zZXJpZiIgZm9udC1zaXplPSIxNCIgbGVuZ3RoQWRqdXN0PSJzcGFjaW5nIiB0ZXh0TGVuZ3RoPSIxMjciIHg9IjQxLjUiIHk9IjMxNS4xNzE5Ij5maXJzdF9uYW1lOiBzdHJpbmc8L3RleHQ+PGVsbGlwc2UgY3g9IjMyLjUiIGN5PSIzMjUuOTE0MSIgZmlsbD0ibm9uZSIgcng9IjMiIHJ5PSIzIiBzdHlsZT0ic3Ryb2tlOiMwMzgwNDg7c3Ryb2tlLXdpZHRoOjEuMDsiLz48dGV4dCBmaWxsPSIjMDAwMDAwIiBmb250LWZhbWlseT0ic2Fucy1zZXJpZiIgZm9udC1zaXplPSIxNCIgbGVuZ3RoQWRqdXN0PSJzcGFjaW5nIiB0ZXh0TGVuZ3RoPSIxMjAiIHg9IjQxLjUiIHk9IjMzMC4xNTYzIj5sYXN0X25hbWU6IHN0cmluZzwvdGV4dD48bGluZSBzdHlsZT0ic3Ryb2tlOiMxODE4MTg7c3Ryb2tlLXdpZHRoOjAuNTsiIHgxPSIyMi41IiB4Mj0iMTczLjUiIHkxPSIzMzUuOTA2MyIgeTI9IjMzNS45MDYzIi8+PC9nPjwhLS1jbGFzcyBQcm9maWxlLS0+PGcgaWQ9ImVsZW1fUHJvZmlsZSI+PHJlY3QgY29kZUxpbmU9IjEwIiBmaWxsPSIjRjFGMUYxIiBoZWlnaHQ9IjEzNy45MDYzIiBpZD0iUHJvZmlsZSIgcng9IjIuNSIgcnk9IjIuNSIgc3R5bGU9InN0cm9rZTojMTgxODE4O3N0cm9rZS13aWR0aDowLjU7IiB3aWR0aD0iMTY2IiB4PSIxNSIgeT0iNDg3LjUiLz48ZWxsaXBzZSBjeD0iNjkuMjUiIGN5PSI1MDMuNSIgZmlsbD0iI0FERDFCMiIgcng9IjExIiByeT0iMTEiIHN0eWxlPSJzdHJva2U6IzE4MTgxODtzdHJva2Utd2lkdGg6MS4wOyIvPjxwYXRoIGQ9Ik03Mi44NzUsNTA5LjUgTDcyLjg3NSw1MDcuNzUgTDY3LjU2MjUsNTA3Ljc1IFE2Ny41NjI1LDUwNy43NSA2Ny41NjI1LDUwNC4xODc1IEw3MS44MTI1LDUwNC4xODc1IEw3MS44MTI1LDUwMi40Mzc1IEw2Ny41NjI1LDUwMi40Mzc1IEw2Ny41NjI1LDQ5OS45Mzc1IEw3Mi44NzUsNDk5LjkzNzUgTDcyLjg3NSw0OTguMTg3NSBMNjUuODEyNSw0OTguMTg3NSBRNjUuODEyNSw0OTguMTg3NSA2NS44MTI1LDUwOS41IEw3Mi44NzUsNTA5LjUgWiAiIGZpbGw9IiMwMDAwMDAiLz48dGV4dCBmaWxsPSIjMDAwMDAwIiBmb250LWZhbWlseT0ic2Fucy1zZXJpZiIgZm9udC1zaXplPSIxNCIgbGVuZ3RoQWRqdXN0PSJzcGFjaW5nIiB0ZXh0TGVuZ3RoPSI0OSIgeD0iODkuNzUiIHk9IjUwOS4yNDIyIj5Qcm9maWxlPC90ZXh0PjxsaW5lIHN0eWxlPSJzdHJva2U6IzE4MTgxODtzdHJva2Utd2lkdGg6MC41OyIgeDE9IjE2IiB4Mj0iMTgwIiB5MT0iNTE5LjUiIHkyPSI1MTkuNSIvPjxlbGxpcHNlIGN4PSIyNiIgY3k9IjUzMi40OTIyIiBmaWxsPSJub25lIiByeD0iMyIgcnk9IjMiIHN0eWxlPSJzdHJva2U6IzAzODA0ODtzdHJva2Utd2lkdGg6MS4wOyIvPjx0ZXh0IGZpbGw9IiMwMDAwMDAiIGZvbnQtZmFtaWx5PSJzYW5zLXNlcmlmIiBmb250LXNpemU9IjE0IiBsZW5ndGhBZGp1c3Q9InNwYWNpbmciIHRleHQtZGVjb3JhdGlvbj0idW5kZXJsaW5lIiB0ZXh0TGVuZ3RoPSIxNCIgeD0iMzUiIHk9IjUzNi43MzQ0Ij5pZDwvdGV4dD48dGV4dCBmaWxsPSIjMDAwMDAwIiBmb250LWZhbWlseT0ic2Fucy1zZXJpZiIgZm9udC1zaXplPSIxNCIgbGVuZ3RoQWRqdXN0PSJzcGFjaW5nIiB0ZXh0TGVuZ3RoPSIzNSIgeD0iNDkiIHk9IjUzNi43MzQ0Ij46IGludDwvdGV4dD48ZWxsaXBzZSBjeD0iMjYiIGN5PSI1NDcuNDc2NiIgZmlsbD0ibm9uZSIgcng9IjMiIHJ5PSIzIiBzdHlsZT0ic3Ryb2tlOiMwMzgwNDg7c3Ryb2tlLXdpZHRoOjEuMDsiLz48dGV4dCBmaWxsPSIjMDAwMDAwIiBmb250LWZhbWlseT0ic2Fucy1zZXJpZiIgZm9udC1zaXplPSIxNCIgbGVuZ3RoQWRqdXN0PSJzcGFjaW5nIiB0ZXh0TGVuZ3RoPSIxNDAiIHg9IjM1IiB5PSI1NTEuNzE4OCI+YWNjb3VudF90eXBlOiBzdHJpbmc8L3RleHQ+PGVsbGlwc2UgY3g9IjI2IiBjeT0iNTYyLjQ2MDkiIGZpbGw9Im5vbmUiIHJ4PSIzIiByeT0iMyIgc3R5bGU9InN0cm9rZTojMDM4MDQ4O3N0cm9rZS13aWR0aDoxLjA7Ii8+PHRleHQgZmlsbD0iIzAwMDAwMCIgZm9udC1mYW1pbHk9InNhbnMtc2VyaWYiIGZvbnQtc2l6ZT0iMTQiIGxlbmd0aEFkanVzdD0ic3BhY2luZyIgdGV4dExlbmd0aD0iOTEiIHg9IjM1IiB5PSI1NjYuNzAzMSI+cGhvbmU6IHN0cmluZzwvdGV4dD48ZWxsaXBzZSBjeD0iMjYiIGN5PSI1NzcuNDQ1MyIgZmlsbD0ibm9uZSIgcng9IjMiIHJ5PSIzIiBzdHlsZT0ic3Ryb2tlOiMwMzgwNDg7c3Ryb2tlLXdpZHRoOjEuMDsiLz48dGV4dCBmaWxsPSIjMDAwMDAwIiBmb250LWZhbWlseT0ic2Fucy1zZXJpZiIgZm9udC1zaXplPSIxNCIgbGVuZ3RoQWRqdXN0PSJzcGFjaW5nIiB0ZXh0TGVuZ3RoPSIxMDUiIHg9IjM1IiB5PSI1ODEuNjg3NSI+YWRkcmVzczogc3RyaW5nPC90ZXh0PjxlbGxpcHNlIGN4PSIyNiIgY3k9IjU5Mi40Mjk3IiBmaWxsPSJub25lIiByeD0iMyIgcnk9IjMiIHN0eWxlPSJzdHJva2U6IzAzODA0ODtzdHJva2Utd2lkdGg6MS4wOyIvPjx0ZXh0IGZpbGw9IiMwMDAwMDAiIGZvbnQtZmFtaWx5PSJzYW5zLXNlcmlmIiBmb250LXNpemU9IjE0IiBsZW5ndGhBZGp1c3Q9InNwYWNpbmciIHRleHRMZW5ndGg9IjEzMyIgeD0iMzUiIHk9IjU5Ni42NzE5Ij5wcm9maWxlX3BpYzogc3RyaW5nPC90ZXh0PjxsaW5lIHN0eWxlPSJzdHJva2U6IzE4MTgxODtzdHJva2Utd2lkdGg6MS4wOyIgeDE9IjE2IiB4Mj0iMTgwIiB5MT0iNjAyLjQyMTkiIHkyPSI2MDIuNDIxOSIvPjxlbGxpcHNlIGN4PSIyNiIgY3k9IjYxNS40MTQxIiBmaWxsPSJub25lIiByeD0iMyIgcnk9IjMiIHN0eWxlPSJzdHJva2U6IzAzODA0ODtzdHJva2Utd2lkdGg6MS4wOyIvPjx0ZXh0IGZpbGw9IiMwMDAwMDAiIGZvbnQtZmFtaWx5PSJzYW5zLXNlcmlmIiBmb250LXNpemU9IjE0IiBsZW5ndGhBZGp1c3Q9InNwYWNpbmciIHRleHRMZW5ndGg9Ijg0IiB4PSIzNSIgeT0iNjE5LjY1NjMiPnVzZXJfaWQ6IGludDwvdGV4dD48L2c+PCEtLWNsYXNzIERpdmlzaW9uLS0+PGcgaWQ9ImVsZW1fRGl2aXNpb24iPjxyZWN0IGNvZGVMaW5lPSIyMCIgZmlsbD0iI0YxRjFGMSIgaGVpZ2h0PSI3Ny45Njg4IiBpZD0iRGl2aXNpb24iIHJ4PSIyLjUiIHJ5PSIyLjUiIHN0eWxlPSJzdHJva2U6IzE4MTgxODtzdHJva2Utd2lkdGg6MC41OyIgd2lkdGg9IjExMSIgeD0iMjg1LjUiIHk9IjM3Ii8+PGVsbGlwc2UgY3g9IjMxMC44NSIgY3k9IjUzIiBmaWxsPSIjQUREMUIyIiByeD0iMTEiIHJ5PSIxMSIgc3R5bGU9InN0cm9rZTojMTgxODE4O3N0cm9rZS13aWR0aDoxLjA7Ii8+PHBhdGggZD0iTTMxNC40NzUsNTkgTDMxNC40NzUsNTcuMjUgTDMwOS4xNjI1LDU3LjI1IFEzMDkuMTYyNSw1Ny4yNSAzMDkuMTYyNSw1My42ODc1IEwzMTMuNDEyNSw1My42ODc1IEwzMTMuNDEyNSw1MS45Mzc1IEwzMDkuMTYyNSw1MS45Mzc1IEwzMDkuMTYyNSw0OS40Mzc1IEwzMTQuNDc1LDQ5LjQzNzUgTDMxNC40NzUsNDcuNjg3NSBMMzA3LjQxMjUsNDcuNjg3NSBRMzA3LjQxMjUsNDcuNjg3NSAzMDcuNDEyNSw1OSBMMzE0LjQ3NSw1OSBaICIgZmlsbD0iIzAwMDAwMCIvPjx0ZXh0IGZpbGw9IiMwMDAwMDAiIGZvbnQtZmFtaWx5PSJzYW5zLXNlcmlmIiBmb250LXNpemU9IjE0IiBsZW5ndGhBZGp1c3Q9InNwYWNpbmciIHRleHRMZW5ndGg9IjU2IiB4PSIzMjcuMTUiIHk9IjU4Ljc0MjIiPkRpdmlzaW9uPC90ZXh0PjxsaW5lIHN0eWxlPSJzdHJva2U6IzE4MTgxODtzdHJva2Utd2lkdGg6MC41OyIgeDE9IjI4Ni41IiB4Mj0iMzk1LjUiIHkxPSI2OSIgeTI9IjY5Ii8+PGVsbGlwc2UgY3g9IjI5Ni41IiBjeT0iODEuOTkyMiIgZmlsbD0ibm9uZSIgcng9IjMiIHJ5PSIzIiBzdHlsZT0ic3Ryb2tlOiMwMzgwNDg7c3Ryb2tlLXdpZHRoOjEuMDsiLz48dGV4dCBmaWxsPSIjMDAwMDAwIiBmb250LWZhbWlseT0ic2Fucy1zZXJpZiIgZm9udC1zaXplPSIxNCIgbGVuZ3RoQWRqdXN0PSJzcGFjaW5nIiB0ZXh0LWRlY29yYXRpb249InVuZGVybGluZSIgdGV4dExlbmd0aD0iMTQiIHg9IjMwNS41IiB5PSI4Ni4yMzQ0Ij5pZDwvdGV4dD48dGV4dCBmaWxsPSIjMDAwMDAwIiBmb250LWZhbWlseT0ic2Fucy1zZXJpZiIgZm9udC1zaXplPSIxNCIgbGVuZ3RoQWRqdXN0PSJzcGFjaW5nIiB0ZXh0TGVuZ3RoPSIzNSIgeD0iMzE5LjUiIHk9Ijg2LjIzNDQiPjogaW50PC90ZXh0PjxlbGxpcHNlIGN4PSIyOTYuNSIgY3k9Ijk2Ljk3NjYiIGZpbGw9Im5vbmUiIHJ4PSIzIiByeT0iMyIgc3R5bGU9InN0cm9rZTojMDM4MDQ4O3N0cm9rZS13aWR0aDoxLjA7Ii8+PHRleHQgZmlsbD0iIzAwMDAwMCIgZm9udC1mYW1pbHk9InNhbnMtc2VyaWYiIGZvbnQtc2l6ZT0iMTQiIGxlbmd0aEFkanVzdD0ic3BhY2luZyIgdGV4dExlbmd0aD0iODUiIHg9IjMwNS41IiB5PSIxMDEuMjE4OCI+bmFtZTogc3RyaW5nPC90ZXh0PjxsaW5lIHN0eWxlPSJzdHJva2U6IzE4MTgxODtzdHJva2Utd2lkdGg6MC41OyIgeDE9IjI4Ni41IiB4Mj0iMzk1LjUiIHkxPSIxMDYuOTY4OCIgeTI9IjEwNi45Njg4Ii8+PC9nPjwhLS1jbGFzcyBDaXR5LS0+PGcgaWQ9ImVsZW1fQ2l0eSI+PHJlY3QgY29kZUxpbmU9IjI1IiBmaWxsPSIjRjFGMUYxIiBoZWlnaHQ9IjkyLjk1MzEiIGlkPSJDaXR5IiByeD0iMi41IiByeT0iMi41IiBzdHlsZT0ic3Ryb2tlOiMxODE4MTg7c3Ryb2tlLXdpZHRoOjAuNTsiIHdpZHRoPSIxMzgiIHg9IjI3MiIgeT0iMjI4LjUiLz48ZWxsaXBzZSBjeD0iMzIyLjc1IiBjeT0iMjQ0LjUiIGZpbGw9IiNBREQxQjIiIHJ4PSIxMSIgcnk9IjExIiBzdHlsZT0ic3Ryb2tlOiMxODE4MTg7c3Ryb2tlLXdpZHRoOjEuMDsiLz48cGF0aCBkPSJNMzI2LjM3NSwyNTAuNSBMMzI2LjM3NSwyNDguNzUgTDMyMS4wNjI1LDI0OC43NSBRMzIxLjA2MjUsMjQ4Ljc1IDMyMS4wNjI1LDI0NS4xODc1IEwzMjUuMzEyNSwyNDUuMTg3NSBMMzI1LjMxMjUsMjQzLjQzNzUgTDMyMS4wNjI1LDI0My40Mzc1IEwzMjEuMDYyNSwyNDAuOTM3NSBMMzI2LjM3NSwyNDAuOTM3NSBMMzI2LjM3NSwyMzkuMTg3NSBMMzE5LjMxMjUsMjM5LjE4NzUgUTMxOS4zMTI1LDIzOS4xODc1IDMxOS4zMTI1LDI1MC41IEwzMjYuMzc1LDI1MC41IFogIiBmaWxsPSIjMDAwMDAwIi8+PHRleHQgZmlsbD0iIzAwMDAwMCIgZm9udC1mYW1pbHk9InNhbnMtc2VyaWYiIGZvbnQtc2l6ZT0iMTQiIGxlbmd0aEFkanVzdD0ic3BhY2luZyIgdGV4dExlbmd0aD0iMjgiIHg9IjM0My4yNSIgeT0iMjUwLjI0MjIiPkNpdHk8L3RleHQ+PGxpbmUgc3R5bGU9InN0cm9rZTojMTgxODE4O3N0cm9rZS13aWR0aDowLjU7IiB4MT0iMjczIiB4Mj0iNDA5IiB5MT0iMjYwLjUiIHkyPSIyNjAuNSIvPjxlbGxpcHNlIGN4PSIyODMiIGN5PSIyNzMuNDkyMiIgZmlsbD0ibm9uZSIgcng9IjMiIHJ5PSIzIiBzdHlsZT0ic3Ryb2tlOiMwMzgwNDg7c3Ryb2tlLXdpZHRoOjEuMDsiLz48dGV4dCBmaWxsPSIjMDAwMDAwIiBmb250LWZhbWlseT0ic2Fucy1zZXJpZiIgZm9udC1zaXplPSIxNCIgbGVuZ3RoQWRqdXN0PSJzcGFjaW5nIiB0ZXh0LWRlY29yYXRpb249InVuZGVybGluZSIgdGV4dExlbmd0aD0iMTQiIHg9IjI5MiIgeT0iMjc3LjczNDQiPmlkPC90ZXh0Pjx0ZXh0IGZpbGw9IiMwMDAwMDAiIGZvbnQtZmFtaWx5PSJzYW5zLXNlcmlmIiBmb250LXNpemU9IjE0IiBsZW5ndGhBZGp1c3Q9InNwYWNpbmciIHRleHRMZW5ndGg9IjM1IiB4PSIzMDYiIHk9IjI3Ny43MzQ0Ij46IGludDwvdGV4dD48ZWxsaXBzZSBjeD0iMjgzIiBjeT0iMjg4LjQ3NjYiIGZpbGw9Im5vbmUiIHJ4PSIzIiByeT0iMyIgc3R5bGU9InN0cm9rZTojMDM4MDQ4O3N0cm9rZS13aWR0aDoxLjA7Ii8+PHRleHQgZmlsbD0iIzAwMDAwMCIgZm9udC1mYW1pbHk9InNhbnMtc2VyaWYiIGZvbnQtc2l6ZT0iMTQiIGxlbmd0aEFkanVzdD0ic3BhY2luZyIgdGV4dExlbmd0aD0iODUiIHg9IjI5MiIgeT0iMjkyLjcxODgiPm5hbWU6IHN0cmluZzwvdGV4dD48bGluZSBzdHlsZT0ic3Ryb2tlOiMxODE4MTg7c3Ryb2tlLXdpZHRoOjEuMDsiIHgxPSIyNzMiIHgyPSI0MDkiIHkxPSIyOTguNDY4OCIgeTI9IjI5OC40Njg4Ii8+PGVsbGlwc2UgY3g9IjI4MyIgY3k9IjMxMS40NjA5IiBmaWxsPSJub25lIiByeD0iMyIgcnk9IjMiIHN0eWxlPSJzdHJva2U6IzAzODA0ODtzdHJva2Utd2lkdGg6MS4wOyIvPjx0ZXh0IGZpbGw9IiMwMDAwMDAiIGZvbnQtZmFtaWx5PSJzYW5zLXNlcmlmIiBmb250LXNpemU9IjE0IiBsZW5ndGhBZGp1c3Q9InNwYWNpbmciIHRleHRMZW5ndGg9IjExMiIgeD0iMjkyIiB5PSIzMTUuNzAzMSI+ZGl2aXNpb25faWQ6IGludDwvdGV4dD48L2c+PCEtLWNsYXNzIFByb3BlcnR5VHlwZS0tPjxnIGlkPSJlbGVtX1Byb3BlcnR5VHlwZSI+PHJlY3QgY29kZUxpbmU9IjMyIiBmaWxsPSIjRjFGMUYxIiBoZWlnaHQ9IjkyLjk1MzEiIGlkPSJQcm9wZXJ0eVR5cGUiIHJ4PSIyLjUiIHJ5PSIyLjUiIHN0eWxlPSJzdHJva2U6IzE4MTgxODtzdHJva2Utd2lkdGg6MC41OyIgd2lkdGg9IjE2MCIgeD0iNDQ1IiB5PSIyMjguNSIvPjxlbGxpcHNlIGN4PSI0NzkuOCIgY3k9IjI0NC41IiBmaWxsPSIjQUREMUIyIiByeD0iMTEiIHJ5PSIxMSIgc3R5bGU9InN0cm9rZTojMTgxODE4O3N0cm9rZS13aWR0aDoxLjA7Ii8+PHBhdGggZD0iTTQ4My40MjUsMjUwLjUgTDQ4My40MjUsMjQ4Ljc1IEw0NzguMTEyNSwyNDguNzUgUTQ3OC4xMTI1LDI0OC43NSA0NzguMTEyNSwyNDUuMTg3NSBMNDgyLjM2MjUsMjQ1LjE4NzUgTDQ4Mi4zNjI1LDI0My40Mzc1IEw0NzguMTEyNSwyNDMuNDM3NSBMNDc4LjExMjUsMjQwLjkzNzUgTDQ4My40MjUsMjQwLjkzNzUgTDQ4My40MjUsMjM5LjE4NzUgTDQ3Ni4zNjI1LDIzOS4xODc1IFE0NzYuMzYyNSwyMzkuMTg3NSA0NzYuMzYyNSwyNTAuNSBMNDgzLjQyNSwyNTAuNSBaICIgZmlsbD0iIzAwMDAwMCIvPjx0ZXh0IGZpbGw9IiMwMDAwMDAiIGZvbnQtZmFtaWx5PSJzYW5zLXNlcmlmIiBmb250LXNpemU9IjE0IiBsZW5ndGhBZGp1c3Q9InNwYWNpbmciIHRleHRMZW5ndGg9Ijg0IiB4PSI0OTguMiIgeT0iMjUwLjI0MjIiPlByb3BlcnR5VHlwZTwvdGV4dD48bGluZSBzdHlsZT0ic3Ryb2tlOiMxODE4MTg7c3Ryb2tlLXdpZHRoOjAuNTsiIHgxPSI0NDYiIHgyPSI2MDQiIHkxPSIyNjAuNSIgeTI9IjI2MC41Ii8+PGVsbGlwc2UgY3g9IjQ1NiIgY3k9IjI3My40OTIyIiBmaWxsPSJub25lIiByeD0iMyIgcnk9IjMiIHN0eWxlPSJzdHJva2U6IzAzODA0ODtzdHJva2Utd2lkdGg6MS4wOyIvPjx0ZXh0IGZpbGw9IiMwMDAwMDAiIGZvbnQtZmFtaWx5PSJzYW5zLXNlcmlmIiBmb250LXNpemU9IjE0IiBsZW5ndGhBZGp1c3Q9InNwYWNpbmciIHRleHQtZGVjb3JhdGlvbj0idW5kZXJsaW5lIiB0ZXh0TGVuZ3RoPSIxNCIgeD0iNDY1IiB5PSIyNzcuNzM0NCI+aWQ8L3RleHQ+PHRleHQgZmlsbD0iIzAwMDAwMCIgZm9udC1mYW1pbHk9InNhbnMtc2VyaWYiIGZvbnQtc2l6ZT0iMTQiIGxlbmd0aEFkanVzdD0ic3BhY2luZyIgdGV4dExlbmd0aD0iMzUiIHg9IjQ3OSIgeT0iMjc3LjczNDQiPjogaW50PC90ZXh0PjxlbGxpcHNlIGN4PSI0NTYiIGN5PSIyODguNDc2NiIgZmlsbD0ibm9uZSIgcng9IjMiIHJ5PSIzIiBzdHlsZT0ic3Ryb2tlOiMwMzgwNDg7c3Ryb2tlLXdpZHRoOjEuMDsiLz48dGV4dCBmaWxsPSIjMDAwMDAwIiBmb250LWZhbWlseT0ic2Fucy1zZXJpZiIgZm9udC1zaXplPSIxNCIgbGVuZ3RoQWRqdXN0PSJzcGFjaW5nIiB0ZXh0TGVuZ3RoPSI4NSIgeD0iNDY1IiB5PSIyOTIuNzE4OCI+bmFtZTogc3RyaW5nPC90ZXh0PjxlbGxpcHNlIGN4PSI0NTYiIGN5PSIzMDMuNDYwOSIgZmlsbD0ibm9uZSIgcng9IjMiIHJ5PSIzIiBzdHlsZT0ic3Ryb2tlOiMwMzgwNDg7c3Ryb2tlLXdpZHRoOjEuMDsiLz48dGV4dCBmaWxsPSIjMDAwMDAwIiBmb250LWZhbWlseT0ic2Fucy1zZXJpZiIgZm9udC1zaXplPSIxNCIgbGVuZ3RoQWRqdXN0PSJzcGFjaW5nIiB0ZXh0TGVuZ3RoPSIxMzQiIHg9IjQ2NSIgeT0iMzA3LjcwMzEiPnBsdXJhbF9uYW1lOiBzdHJpbmc8L3RleHQ+PGxpbmUgc3R5bGU9InN0cm9rZTojMTgxODE4O3N0cm9rZS13aWR0aDowLjU7IiB4MT0iNDQ2IiB4Mj0iNjA0IiB5MT0iMzEzLjQ1MzEiIHkyPSIzMTMuNDUzMSIvPjwvZz48IS0tY2xhc3MgUHJvcGVydHktLT48ZyBpZD0iZWxlbV9Qcm9wZXJ0eSI+PHJlY3QgY29kZUxpbmU9IjM4IiBmaWxsPSIjRjFGMUYxIiBoZWlnaHQ9IjMwMi43MzQ0IiBpZD0iUHJvcGVydHkiIHJ4PSIyLjUiIHJ5PSIyLjUiIHN0eWxlPSJzdHJva2U6IzE4MTgxODtzdHJva2Utd2lkdGg6MC41OyIgd2lkdGg9IjE3MyIgeD0iMzgyLjUiIHk9IjQwNSIvPjxlbGxpcHNlIGN4PSI0MzYuNzUiIGN5PSI0MjEiIGZpbGw9IiNBREQxQjIiIHJ4PSIxMSIgcnk9IjExIiBzdHlsZT0ic3Ryb2tlOiMxODE4MTg7c3Ryb2tlLXdpZHRoOjEuMDsiLz48cGF0aCBkPSJNNDQwLjM3NSw0MjcgTDQ0MC4zNzUsNDI1LjI1IEw0MzUuMDYyNSw0MjUuMjUgUTQzNS4wNjI1LDQyNS4yNSA0MzUuMDYyNSw0MjEuNjg3NSBMNDM5LjMxMjUsNDIxLjY4NzUgTDQzOS4zMTI1LDQxOS45Mzc1IEw0MzUuMDYyNSw0MTkuOTM3NSBMNDM1LjA2MjUsNDE3LjQzNzUgTDQ0MC4zNzUsNDE3LjQzNzUgTDQ0MC4zNzUsNDE1LjY4NzUgTDQzMy4zMTI1LDQxNS42ODc1IFE0MzMuMzEyNSw0MTUuNjg3NSA0MzMuMzEyNSw0MjcgTDQ0MC4zNzUsNDI3IFogIiBmaWxsPSIjMDAwMDAwIi8+PHRleHQgZmlsbD0iIzAwMDAwMCIgZm9udC1mYW1pbHk9InNhbnMtc2VyaWYiIGZvbnQtc2l6ZT0iMTQiIGxlbmd0aEFkanVzdD0ic3BhY2luZyIgdGV4dExlbmd0aD0iNTYiIHg9IjQ1Ny4yNSIgeT0iNDI2Ljc0MjIiPlByb3BlcnR5PC90ZXh0PjxsaW5lIHN0eWxlPSJzdHJva2U6IzE4MTgxODtzdHJva2Utd2lkdGg6MC41OyIgeDE9IjM4My41IiB4Mj0iNTU0LjUiIHkxPSI0MzciIHkyPSI0MzciLz48ZWxsaXBzZSBjeD0iMzkzLjUiIGN5PSI0NDkuOTkyMiIgZmlsbD0ibm9uZSIgcng9IjMiIHJ5PSIzIiBzdHlsZT0ic3Ryb2tlOiMwMzgwNDg7c3Ryb2tlLXdpZHRoOjEuMDsiLz48dGV4dCBmaWxsPSIjMDAwMDAwIiBmb250LWZhbWlseT0ic2Fucy1zZXJpZiIgZm9udC1zaXplPSIxNCIgbGVuZ3RoQWRqdXN0PSJzcGFjaW5nIiB0ZXh0LWRlY29yYXRpb249InVuZGVybGluZSIgdGV4dExlbmd0aD0iMTQiIHg9IjQwMi41IiB5PSI0NTQuMjM0NCI+aWQ8L3RleHQ+PHRleHQgZmlsbD0iIzAwMDAwMCIgZm9udC1mYW1pbHk9InNhbnMtc2VyaWYiIGZvbnQtc2l6ZT0iMTQiIGxlbmd0aEFkanVzdD0ic3BhY2luZyIgdGV4dExlbmd0aD0iMzUiIHg9IjQxNi41IiB5PSI0NTQuMjM0NCI+OiBpbnQ8L3RleHQ+PGVsbGlwc2UgY3g9IjM5My41IiBjeT0iNDY0Ljk3NjYiIGZpbGw9Im5vbmUiIHJ4PSIzIiByeT0iMyIgc3R5bGU9InN0cm9rZTojMDM4MDQ4O3N0cm9rZS13aWR0aDoxLjA7Ii8+PHRleHQgZmlsbD0iIzAwMDAwMCIgZm9udC1mYW1pbHk9InNhbnMtc2VyaWYiIGZvbnQtc2l6ZT0iMTQiIGxlbmd0aEFkanVzdD0ic3BhY2luZyIgdGV4dExlbmd0aD0iOTEiIHg9IjQwMi41IiB5PSI0NjkuMjE4OCI+dGl0bGU6IHN0cmluZzwvdGV4dD48ZWxsaXBzZSBjeD0iMzkzLjUiIGN5PSI0NzkuOTYwOSIgZmlsbD0ibm9uZSIgcng9IjMiIHJ5PSIzIiBzdHlsZT0ic3Ryb2tlOiMwMzgwNDg7c3Ryb2tlLXdpZHRoOjEuMDsiLz48dGV4dCBmaWxsPSIjMDAwMDAwIiBmb250LWZhbWlseT0ic2Fucy1zZXJpZiIgZm9udC1zaXplPSIxNCIgbGVuZ3RoQWRqdXN0PSJzcGFjaW5nIiB0ZXh0TGVuZ3RoPSIxMzMiIHg9IjQwMi41IiB5PSI0ODQuMjAzMSI+ZGVzY3JpcHRpb246IHN0cmluZzwvdGV4dD48ZWxsaXBzZSBjeD0iMzkzLjUiIGN5PSI0OTQuOTQ1MyIgZmlsbD0ibm9uZSIgcng9IjMiIHJ5PSIzIiBzdHlsZT0ic3Ryb2tlOiMwMzgwNDg7c3Ryb2tlLXdpZHRoOjEuMDsiLz48dGV4dCBmaWxsPSIjMDAwMDAwIiBmb250LWZhbWlseT0ic2Fucy1zZXJpZiIgZm9udC1zaXplPSIxNCIgbGVuZ3RoQWRqdXN0PSJzcGFjaW5nIiB0ZXh0TGVuZ3RoPSI3MCIgeD0iNDAyLjUiIHk9IjQ5OS4xODc1Ij5wcmljZTogaW50PC90ZXh0PjxlbGxpcHNlIGN4PSIzOTMuNSIgY3k9IjUwOS45Mjk3IiBmaWxsPSJub25lIiByeD0iMyIgcnk9IjMiIHN0eWxlPSJzdHJva2U6IzAzODA0ODtzdHJva2Utd2lkdGg6MS4wOyIvPjx0ZXh0IGZpbGw9IiMwMDAwMDAiIGZvbnQtZmFtaWx5PSJzYW5zLXNlcmlmIiBmb250LXNpemU9IjE0IiBsZW5ndGhBZGp1c3Q9InNwYWNpbmciIHRleHRMZW5ndGg9Ijg0IiB4PSI0MDIuNSIgeT0iNTE0LjE3MTkiPmFyZWE6IHN0cmluZzwvdGV4dD48ZWxsaXBzZSBjeD0iMzkzLjUiIGN5PSI1MjQuOTE0MSIgZmlsbD0ibm9uZSIgcng9IjMiIHJ5PSIzIiBzdHlsZT0ic3Ryb2tlOiMwMzgwNDg7c3Ryb2tlLXdpZHRoOjEuMDsiLz48dGV4dCBmaWxsPSIjMDAwMDAwIiBmb250LWZhbWlseT0ic2Fucy1zZXJpZiIgZm9udC1zaXplPSIxNCIgbGVuZ3RoQWRqdXN0PSJzcGFjaW5nIiB0ZXh0TGVuZ3RoPSI5MiIgeD0iNDAyLjUiIHk9IjUyOS4xNTYzIj5iZWRyb29tczogaW50PC90ZXh0PjxlbGxpcHNlIGN4PSIzOTMuNSIgY3k9IjUzOS44OTg0IiBmaWxsPSJub25lIiByeD0iMyIgcnk9IjMiIHN0eWxlPSJzdHJva2U6IzAzODA0ODtzdHJva2Utd2lkdGg6MS4wOyIvPjx0ZXh0IGZpbGw9IiMwMDAwMDAiIGZvbnQtZmFtaWx5PSJzYW5zLXNlcmlmIiBmb250LXNpemU9IjE0IiBsZW5ndGhBZGp1c3Q9InNwYWNpbmciIHRleHRMZW5ndGg9Ijk5IiB4PSI0MDIuNSIgeT0iNTQ0LjE0MDYiPmJhdGhyb29tczogaW50PC90ZXh0PjxlbGxpcHNlIGN4PSIzOTMuNSIgY3k9IjU1NC44ODI4IiBmaWxsPSJub25lIiByeD0iMyIgcnk9IjMiIHN0eWxlPSJzdHJva2U6IzAzODA0ODtzdHJva2Utd2lkdGg6MS4wOyIvPjx0ZXh0IGZpbGw9IiMwMDAwMDAiIGZvbnQtZmFtaWx5PSJzYW5zLXNlcmlmIiBmb250LXNpemU9IjE0IiBsZW5ndGhBZGp1c3Q9InNwYWNpbmciIHRleHRMZW5ndGg9Ijg0IiB4PSI0MDIuNSIgeT0iNTU5LjEyNSI+Z2FyYWdlczogaW50PC90ZXh0PjxlbGxpcHNlIGN4PSIzOTMuNSIgY3k9IjU2OS44NjcyIiBmaWxsPSJub25lIiByeD0iMyIgcnk9IjMiIHN0eWxlPSJzdHJva2U6IzAzODA0ODtzdHJva2Utd2lkdGg6MS4wOyIvPjx0ZXh0IGZpbGw9IiMwMDAwMDAiIGZvbnQtZmFtaWx5PSJzYW5zLXNlcmlmIiBmb250LXNpemU9IjE0IiBsZW5ndGhBZGp1c3Q9InNwYWNpbmciIHRleHRMZW5ndGg9IjEwNSIgeD0iNDAyLjUiIHk9IjU3NC4xMDk0Ij5hZGRyZXNzOiBzdHJpbmc8L3RleHQ+PGVsbGlwc2UgY3g9IjM5My41IiBjeT0iNTg0Ljg1MTYiIGZpbGw9Im5vbmUiIHJ4PSIzIiByeT0iMyIgc3R5bGU9InN0cm9rZTojMDM4MDQ4O3N0cm9rZS13aWR0aDoxLjA7Ii8+PHRleHQgZmlsbD0iIzAwMDAwMCIgZm9udC1mYW1pbHk9InNhbnMtc2VyaWYiIGZvbnQtc2l6ZT0iMTQiIGxlbmd0aEFkanVzdD0ic3BhY2luZyIgdGV4dExlbmd0aD0iMTI2IiB4PSI0MDIuNSIgeT0iNTg5LjA5MzgiPmlzX2Jvb2tlZDogYm9vbGVhbjwvdGV4dD48ZWxsaXBzZSBjeD0iMzkzLjUiIGN5PSI1OTkuODM1OSIgZmlsbD0ibm9uZSIgcng9IjMiIHJ5PSIzIiBzdHlsZT0ic3Ryb2tlOiMwMzgwNDg7c3Ryb2tlLXdpZHRoOjEuMDsiLz48dGV4dCBmaWxsPSIjMDAwMDAwIiBmb250LWZhbWlseT0ic2Fucy1zZXJpZiIgZm9udC1zaXplPSIxNCIgbGVuZ3RoQWRqdXN0PSJzcGFjaW5nIiB0ZXh0TGVuZ3RoPSIxMzQiIHg9IjQwMi41IiB5PSI2MDQuMDc4MSI+bGlzdF9kYXRlOiBkYXRldGltZTwvdGV4dD48ZWxsaXBzZSBjeD0iMzkzLjUiIGN5PSI2MTQuODIwMyIgZmlsbD0ibm9uZSIgcng9IjMiIHJ5PSIzIiBzdHlsZT0ic3Ryb2tlOiMwMzgwNDg7c3Ryb2tlLXdpZHRoOjEuMDsiLz48dGV4dCBmaWxsPSIjMDAwMDAwIiBmb250LWZhbWlseT0ic2Fucy1zZXJpZiIgZm9udC1zaXplPSIxNCIgbGVuZ3RoQWRqdXN0PSJzcGFjaW5nIiB0ZXh0TGVuZ3RoPSI5OCIgeD0iNDAyLjUiIHk9IjYxOS4wNjI1Ij5zdGF0dXM6IHN0cmluZzwvdGV4dD48bGluZSBzdHlsZT0ic3Ryb2tlOiMxODE4MTg7c3Ryb2tlLXdpZHRoOjEuMDsiIHgxPSIzODMuNSIgeDI9IjU1NC41IiB5MT0iNjI0LjgxMjUiIHkyPSI2MjQuODEyNSIvPjxlbGxpcHNlIGN4PSIzOTMuNSIgY3k9IjYzNy44MDQ3IiBmaWxsPSJub25lIiByeD0iMyIgcnk9IjMiIHN0eWxlPSJzdHJva2U6IzAzODA0ODtzdHJva2Utd2lkdGg6MS4wOyIvPjx0ZXh0IGZpbGw9IiMwMDAwMDAiIGZvbnQtZmFtaWx5PSJzYW5zLXNlcmlmIiBmb250LXNpemU9IjE0IiBsZW5ndGhBZGp1c3Q9InNwYWNpbmciIHRleHRMZW5ndGg9IjkyIiB4PSI0MDIuNSIgeT0iNjQyLjA0NjkiPm93bmVyX2lkOiBpbnQ8L3RleHQ+PGVsbGlwc2UgY3g9IjM5My41IiBjeT0iNjUyLjc4OTEiIGZpbGw9Im5vbmUiIHJ4PSIzIiByeT0iMyIgc3R5bGU9InN0cm9rZTojMDM4MDQ4O3N0cm9rZS13aWR0aDoxLjA7Ii8+PHRleHQgZmlsbD0iIzAwMDAwMCIgZm9udC1mYW1pbHk9InNhbnMtc2VyaWYiIGZvbnQtc2l6ZT0iMTQiIGxlbmd0aEFkanVzdD0ic3BhY2luZyIgdGV4dExlbmd0aD0iOTEiIHg9IjQwMi41IiB5PSI2NTcuMDMxMyI+YWdlbnRfaWQ6IGludDwvdGV4dD48ZWxsaXBzZSBjeD0iMzkzLjUiIGN5PSI2NjcuNzczNCIgZmlsbD0ibm9uZSIgcng9IjMiIHJ5PSIzIiBzdHlsZT0ic3Ryb2tlOiMwMzgwNDg7c3Ryb2tlLXdpZHRoOjEuMDsiLz48dGV4dCBmaWxsPSIjMDAwMDAwIiBmb250LWZhbWlseT0ic2Fucy1zZXJpZiIgZm9udC1zaXplPSIxNCIgbGVuZ3RoQWRqdXN0PSJzcGFjaW5nIiB0ZXh0TGVuZ3RoPSIxNDciIHg9IjQwMi41IiB5PSI2NzIuMDE1NiI+cHJvcGVydHlfdHlwZV9pZDogaW50PC90ZXh0PjxlbGxpcHNlIGN4PSIzOTMuNSIgY3k9IjY4Mi43NTc4IiBmaWxsPSJub25lIiByeD0iMyIgcnk9IjMiIHN0eWxlPSJzdHJva2U6IzAzODA0ODtzdHJva2Utd2lkdGg6MS4wOyIvPjx0ZXh0IGZpbGw9IiMwMDAwMDAiIGZvbnQtZmFtaWx5PSJzYW5zLXNlcmlmIiBmb250LXNpemU9IjE0IiBsZW5ndGhBZGp1c3Q9InNwYWNpbmciIHRleHRMZW5ndGg9Ijg0IiB4PSI0MDIuNSIgeT0iNjg3Ij5jaXR5X2lkOiBpbnQ8L3RleHQ+PGVsbGlwc2UgY3g9IjM5My41IiBjeT0iNjk3Ljc0MjIiIGZpbGw9Im5vbmUiIHJ4PSIzIiByeT0iMyIgc3R5bGU9InN0cm9rZTojMDM4MDQ4O3N0cm9rZS13aWR0aDoxLjA7Ii8+PHRleHQgZmlsbD0iIzAwMDAwMCIgZm9udC1mYW1pbHk9InNhbnMtc2VyaWYiIGZvbnQtc2l6ZT0iMTQiIGxlbmd0aEFkanVzdD0ic3BhY2luZyIgdGV4dExlbmd0aD0iMTEyIiB4PSI0MDIuNSIgeT0iNzAxLjk4NDQiPmRpdmlzaW9uX2lkOiBpbnQ8L3RleHQ+PC9nPjwhLS1jbGFzcyBQcm9wZXJ0eUltYWdlLS0+PGcgaWQ9ImVsZW1fUHJvcGVydHlJbWFnZSI+PHJlY3QgY29kZUxpbmU9IjU5IiBmaWxsPSIjRjFGMUYxIiBoZWlnaHQ9IjkyLjk1MzEiIGlkPSJQcm9wZXJ0eUltYWdlIiByeD0iMi41IiByeT0iMi41IiBzdHlsZT0ic3Ryb2tlOiMxODE4MTg7c3Ryb2tlLXdpZHRoOjAuNTsiIHdpZHRoPSIxMzgiIHg9IjIxNyIgeT0iODEzIi8+PGVsbGlwc2UgY3g9IjIzOC4zIiBjeT0iODI5IiBmaWxsPSIjQUREMUIyIiByeD0iMTEiIHJ5PSIxMSIgc3R5bGU9InN0cm9rZTojMTgxODE4O3N0cm9rZS13aWR0aDoxLjA7Ii8+PHBhdGggZD0iTTI0MS45MjUsODM1IEwyNDEuOTI1LDgzMy4yNSBMMjM2LjYxMjUsODMzLjI1IFEyMzYuNjEyNSw4MzMuMjUgMjM2LjYxMjUsODI5LjY4NzUgTDI0MC44NjI1LDgyOS42ODc1IEwyNDAuODYyNSw4MjcuOTM3NSBMMjM2LjYxMjUsODI3LjkzNzUgTDIzNi42MTI1LDgyNS40Mzc1IEwyNDEuOTI1LDgyNS40Mzc1IEwyNDEuOTI1LDgyMy42ODc1IEwyMzQuODYyNSw4MjMuNjg3NSBRMjM0Ljg2MjUsODIzLjY4NzUgMjM0Ljg2MjUsODM1IEwyNDEuOTI1LDgzNSBaICIgZmlsbD0iIzAwMDAwMCIvPjx0ZXh0IGZpbGw9IiMwMDAwMDAiIGZvbnQtZmFtaWx5PSJzYW5zLXNlcmlmIiBmb250LXNpemU9IjE0IiBsZW5ndGhBZGp1c3Q9InNwYWNpbmciIHRleHRMZW5ndGg9IjkyIiB4PSIyNTMuNyIgeT0iODM0Ljc0MjIiPlByb3BlcnR5SW1hZ2U8L3RleHQ+PGxpbmUgc3R5bGU9InN0cm9rZTojMTgxODE4O3N0cm9rZS13aWR0aDowLjU7IiB4MT0iMjE4IiB4Mj0iMzU0IiB5MT0iODQ1IiB5Mj0iODQ1Ii8+PGVsbGlwc2UgY3g9IjIyOCIgY3k9Ijg1Ny45OTIyIiBmaWxsPSJub25lIiByeD0iMyIgcnk9IjMiIHN0eWxlPSJzdHJva2U6IzAzODA0ODtzdHJva2Utd2lkdGg6MS4wOyIvPjx0ZXh0IGZpbGw9IiMwMDAwMDAiIGZvbnQtZmFtaWx5PSJzYW5zLXNlcmlmIiBmb250LXNpemU9IjE0IiBsZW5ndGhBZGp1c3Q9InNwYWNpbmciIHRleHQtZGVjb3JhdGlvbj0idW5kZXJsaW5lIiB0ZXh0TGVuZ3RoPSIxNCIgeD0iMjM3IiB5PSI4NjIuMjM0NCI+aWQ8L3RleHQ+PHRleHQgZmlsbD0iIzAwMDAwMCIgZm9udC1mYW1pbHk9InNhbnMtc2VyaWYiIGZvbnQtc2l6ZT0iMTQiIGxlbmd0aEFkanVzdD0ic3BhY2luZyIgdGV4dExlbmd0aD0iMzUiIHg9IjI1MSIgeT0iODYyLjIzNDQiPjogaW50PC90ZXh0PjxlbGxpcHNlIGN4PSIyMjgiIGN5PSI4NzIuOTc2NiIgZmlsbD0ibm9uZSIgcng9IjMiIHJ5PSIzIiBzdHlsZT0ic3Ryb2tlOiMwMzgwNDg7c3Ryb2tlLXdpZHRoOjEuMDsiLz48dGV4dCBmaWxsPSIjMDAwMDAwIiBmb250LWZhbWlseT0ic2Fucy1zZXJpZiIgZm9udC1zaXplPSIxNCIgbGVuZ3RoQWRqdXN0PSJzcGFjaW5nIiB0ZXh0TGVuZ3RoPSI5MiIgeD0iMjM3IiB5PSI4NzcuMjE4OCI+aW1hZ2U6IHN0cmluZzwvdGV4dD48bGluZSBzdHlsZT0ic3Ryb2tlOiMxODE4MTg7c3Ryb2tlLXdpZHRoOjEuMDsiIHgxPSIyMTgiIHgyPSIzNTQiIHkxPSI4ODIuOTY4OCIgeTI9Ijg4Mi45Njg4Ii8+PGVsbGlwc2UgY3g9IjIyOCIgY3k9Ijg5NS45NjA5IiBmaWxsPSJub25lIiByeD0iMyIgcnk9IjMiIHN0eWxlPSJzdHJva2U6IzAzODA0ODtzdHJva2Utd2lkdGg6MS4wOyIvPjx0ZXh0IGZpbGw9IiMwMDAwMDAiIGZvbnQtZmFtaWx5PSJzYW5zLXNlcmlmIiBmb250LXNpemU9IjE0IiBsZW5ndGhBZGp1c3Q9InNwYWNpbmciIHRleHRMZW5ndGg9IjExMiIgeD0iMjM3IiB5PSI5MDAuMjAzMSI+cHJvcGVydHlfaWQ6IGludDwvdGV4dD48L2c+PCEtLWNsYXNzIFByb3BlcnR5Qm9va2luZy0tPjxnIGlkPSJlbGVtX1Byb3BlcnR5Qm9va2luZyI+PHJlY3QgY29kZUxpbmU9IjY2IiBmaWxsPSIjRjFGMUYxIiBoZWlnaHQ9IjE1Mi44OTA2IiBpZD0iUHJvcGVydHlCb29raW5nIiByeD0iMi41IiByeT0iMi41IiBzdHlsZT0ic3Ryb2tlOiMxODE4MTg7c3Ryb2tlLXdpZHRoOjAuNTsiIHdpZHRoPSIxNjciIHg9IjE0LjUiIHk9Ijc4MyIvPjxlbGxpcHNlIGN4PSI0MyIgY3k9Ijc5OSIgZmlsbD0iI0FERDFCMiIgcng9IjExIiByeT0iMTEiIHN0eWxlPSJzdHJva2U6IzE4MTgxODtzdHJva2Utd2lkdGg6MS4wOyIvPjxwYXRoIGQ9Ik00Ni42MjUsODA1IEw0Ni42MjUsODAzLjI1IEw0MS4zMTI1LDgwMy4yNSBRNDEuMzEyNSw4MDMuMjUgNDEuMzEyNSw3OTkuNjg3NSBMNDUuNTYyNSw3OTkuNjg3NSBMNDUuNTYyNSw3OTcuOTM3NSBMNDEuMzEyNSw3OTcuOTM3NSBMNDEuMzEyNSw3OTUuNDM3NSBMNDYuNjI1LDc5NS40Mzc1IEw0Ni42MjUsNzkzLjY4NzUgTDM5LjU2MjUsNzkzLjY4NzUgUTM5LjU2MjUsNzkzLjY4NzUgMzkuNTYyNSw4MDUgTDQ2LjYyNSw4MDUgWiAiIGZpbGw9IiMwMDAwMDAiLz48dGV4dCBmaWxsPSIjMDAwMDAwIiBmb250LWZhbWlseT0ic2Fucy1zZXJpZiIgZm9udC1zaXplPSIxNCIgbGVuZ3RoQWRqdXN0PSJzcGFjaW5nIiB0ZXh0TGVuZ3RoPSIxMDUiIHg9IjYwIiB5PSI4MDQuNzQyMiI+UHJvcGVydHlCb29raW5nPC90ZXh0PjxsaW5lIHN0eWxlPSJzdHJva2U6IzE4MTgxODtzdHJva2Utd2lkdGg6MC41OyIgeDE9IjE1LjUiIHgyPSIxODAuNSIgeTE9IjgxNSIgeTI9IjgxNSIvPjxlbGxpcHNlIGN4PSIyNS41IiBjeT0iODI3Ljk5MjIiIGZpbGw9Im5vbmUiIHJ4PSIzIiByeT0iMyIgc3R5bGU9InN0cm9rZTojMDM4MDQ4O3N0cm9rZS13aWR0aDoxLjA7Ii8+PHRleHQgZmlsbD0iIzAwMDAwMCIgZm9udC1mYW1pbHk9InNhbnMtc2VyaWYiIGZvbnQtc2l6ZT0iMTQiIGxlbmd0aEFkanVzdD0ic3BhY2luZyIgdGV4dC1kZWNvcmF0aW9uPSJ1bmRlcmxpbmUiIHRleHRMZW5ndGg9IjE0IiB4PSIzNC41IiB5PSI4MzIuMjM0NCI+aWQ8L3RleHQ+PHRleHQgZmlsbD0iIzAwMDAwMCIgZm9udC1mYW1pbHk9InNhbnMtc2VyaWYiIGZvbnQtc2l6ZT0iMTQiIGxlbmd0aEFkanVzdD0ic3BhY2luZyIgdGV4dExlbmd0aD0iMzUiIHg9IjQ4LjUiIHk9IjgzMi4yMzQ0Ij46IGludDwvdGV4dD48ZWxsaXBzZSBjeD0iMjUuNSIgY3k9Ijg0Mi45NzY2IiBmaWxsPSJub25lIiByeD0iMyIgcnk9IjMiIHN0eWxlPSJzdHJva2U6IzAzODA0ODtzdHJva2Utd2lkdGg6MS4wOyIvPjx0ZXh0IGZpbGw9IiMwMDAwMDAiIGZvbnQtZmFtaWx5PSJzYW5zLXNlcmlmIiBmb250LXNpemU9IjE0IiBsZW5ndGhBZGp1c3Q9InNwYWNpbmciIHRleHRMZW5ndGg9Ijk4IiB4PSIzNC41IiB5PSI4NDcuMjE4OCI+c3RhdHVzOiBzdHJpbmc8L3RleHQ+PGVsbGlwc2UgY3g9IjI1LjUiIGN5PSI4NTcuOTYwOSIgZmlsbD0ibm9uZSIgcng9IjMiIHJ5PSIzIiBzdHlsZT0ic3Ryb2tlOiMwMzgwNDg7c3Ryb2tlLXdpZHRoOjEuMDsiLz48dGV4dCBmaWxsPSIjMDAwMDAwIiBmb250LWZhbWlseT0ic2Fucy1zZXJpZiIgZm9udC1zaXplPSIxNCIgbGVuZ3RoQWRqdXN0PSJzcGFjaW5nIiB0ZXh0TGVuZ3RoPSIxMTIiIHg9IjM0LjUiIHk9Ijg2Mi4yMDMxIj52aXNpdF9kYXRlOiBkYXRlPC90ZXh0PjxlbGxpcHNlIGN4PSIyNS41IiBjeT0iODcyLjk0NTMiIGZpbGw9Im5vbmUiIHJ4PSIzIiByeT0iMyIgc3R5bGU9InN0cm9rZTojMDM4MDQ4O3N0cm9rZS13aWR0aDoxLjA7Ii8+PHRleHQgZmlsbD0iIzAwMDAwMCIgZm9udC1mYW1pbHk9InNhbnMtc2VyaWYiIGZvbnQtc2l6ZT0iMTQiIGxlbmd0aEFkanVzdD0ic3BhY2luZyIgdGV4dExlbmd0aD0iMTE0IiB4PSIzNC41IiB5PSI4NzcuMTg3NSI+dmlzaXRfdGltZTogdGltZTwvdGV4dD48ZWxsaXBzZSBjeD0iMjUuNSIgY3k9Ijg4Ny45Mjk3IiBmaWxsPSJub25lIiByeD0iMyIgcnk9IjMiIHN0eWxlPSJzdHJva2U6IzAzODA0ODtzdHJva2Utd2lkdGg6MS4wOyIvPjx0ZXh0IGZpbGw9IiMwMDAwMDAiIGZvbnQtZmFtaWx5PSJzYW5zLXNlcmlmIiBmb250LXNpemU9IjE0IiBsZW5ndGhBZGp1c3Q9InNwYWNpbmciIHRleHRMZW5ndGg9IjE0MSIgeD0iMzQuNSIgeT0iODkyLjE3MTkiPmNyZWF0ZWRfYXQ6IGRhdGV0aW1lPC90ZXh0PjxsaW5lIHN0eWxlPSJzdHJva2U6IzE4MTgxODtzdHJva2Utd2lkdGg6MS4wOyIgeDE9IjE1LjUiIHgyPSIxODAuNSIgeTE9Ijg5Ny45MjE5IiB5Mj0iODk3LjkyMTkiLz48ZWxsaXBzZSBjeD0iMjUuNSIgY3k9IjkxMC45MTQxIiBmaWxsPSJub25lIiByeD0iMyIgcnk9IjMiIHN0eWxlPSJzdHJva2U6IzAzODA0ODtzdHJva2Utd2lkdGg6MS4wOyIvPjx0ZXh0IGZpbGw9IiMwMDAwMDAiIGZvbnQtZmFtaWx5PSJzYW5zLXNlcmlmIiBmb250LXNpemU9IjE0IiBsZW5ndGhBZGp1c3Q9InNwYWNpbmciIHRleHRMZW5ndGg9IjExMiIgeD0iMzQuNSIgeT0iOTE1LjE1NjMiPnByb3BlcnR5X2lkOiBpbnQ8L3RleHQ+PGVsbGlwc2UgY3g9IjI1LjUiIGN5PSI5MjUuODk4NCIgZmlsbD0ibm9uZSIgcng9IjMiIHJ5PSIzIiBzdHlsZT0ic3Ryb2tlOiMwMzgwNDg7c3Ryb2tlLXdpZHRoOjEuMDsiLz48dGV4dCBmaWxsPSIjMDAwMDAwIiBmb250LWZhbWlseT0ic2Fucy1zZXJpZiIgZm9udC1zaXplPSIxNCIgbGVuZ3RoQWRqdXN0PSJzcGFjaW5nIiB0ZXh0TGVuZ3RoPSI5MSIgeD0iMzQuNSIgeT0iOTMwLjE0MDYiPmJ1eWVyX2lkOiBpbnQ8L3RleHQ+PC9nPjwhLS1jbGFzcyBQYXltZW50LS0+PGcgaWQ9ImVsZW1fUGF5bWVudCI+PHJlY3QgY29kZUxpbmU9Ijc3IiBmaWxsPSIjRjFGMUYxIiBoZWlnaHQ9IjE2Ny44NzUiIGlkPSJQYXltZW50IiByeD0iMi41IiByeT0iMi41IiBzdHlsZT0ic3Ryb2tlOiMxODE4MTg7c3Ryb2tlLXdpZHRoOjAuNTsiIHdpZHRoPSIxODIiIHg9IjciIHk9Ijk5NyIvPjxlbGxpcHNlIGN4PSI2OC43NSIgY3k9IjEwMTMiIGZpbGw9IiNBREQxQjIiIHJ4PSIxMSIgcnk9IjExIiBzdHlsZT0ic3Ryb2tlOiMxODE4MTg7c3Ryb2tlLXdpZHRoOjEuMDsiLz48cGF0aCBkPSJNNzIuMzc1LDEwMTkgTDcyLjM3NSwxMDE3LjI1IEw2Ny4wNjI1LDEwMTcuMjUgUTY3LjA2MjUsMTAxNy4yNSA2Ny4wNjI1LDEwMTMuNjg3NSBMNzEuMzEyNSwxMDEzLjY4NzUgTDcxLjMxMjUsMTAxMS45Mzc1IEw2Ny4wNjI1LDEwMTEuOTM3NSBMNjcuMDYyNSwxMDA5LjQzNzUgTDcyLjM3NSwxMDA5LjQzNzUgTDcyLjM3NSwxMDA3LjY4NzUgTDY1LjMxMjUsMTAwNy42ODc1IFE2NS4zMTI1LDEwMDcuNjg3NSA2NS4zMTI1LDEwMTkgTDcyLjM3NSwxMDE5IFogIiBmaWxsPSIjMDAwMDAwIi8+PHRleHQgZmlsbD0iIzAwMDAwMCIgZm9udC1mYW1pbHk9InNhbnMtc2VyaWYiIGZvbnQtc2l6ZT0iMTQiIGxlbmd0aEFkanVzdD0ic3BhY2luZyIgdGV4dExlbmd0aD0iNTAiIHg9Ijg5LjI1IiB5PSIxMDE4Ljc0MjIiPlBheW1lbnQ8L3RleHQ+PGxpbmUgc3R5bGU9InN0cm9rZTojMTgxODE4O3N0cm9rZS13aWR0aDowLjU7IiB4MT0iOCIgeDI9IjE4OCIgeTE9IjEwMjkiIHkyPSIxMDI5Ii8+PGVsbGlwc2UgY3g9IjE4IiBjeT0iMTA0MS45OTIyIiBmaWxsPSJub25lIiByeD0iMyIgcnk9IjMiIHN0eWxlPSJzdHJva2U6IzAzODA0ODtzdHJva2Utd2lkdGg6MS4wOyIvPjx0ZXh0IGZpbGw9IiMwMDAwMDAiIGZvbnQtZmFtaWx5PSJzYW5zLXNlcmlmIiBmb250LXNpemU9IjE0IiBsZW5ndGhBZGp1c3Q9InNwYWNpbmciIHRleHQtZGVjb3JhdGlvbj0idW5kZXJsaW5lIiB0ZXh0TGVuZ3RoPSIxNCIgeD0iMjciIHk9IjEwNDYuMjM0NCI+aWQ8L3RleHQ+PHRleHQgZmlsbD0iIzAwMDAwMCIgZm9udC1mYW1pbHk9InNhbnMtc2VyaWYiIGZvbnQtc2l6ZT0iMTQiIGxlbmd0aEFkanVzdD0ic3BhY2luZyIgdGV4dExlbmd0aD0iMzUiIHg9IjQxIiB5PSIxMDQ2LjIzNDQiPjogaW50PC90ZXh0PjxlbGxpcHNlIGN4PSIxOCIgY3k9IjEwNTYuOTc2NiIgZmlsbD0ibm9uZSIgcng9IjMiIHJ5PSIzIiBzdHlsZT0ic3Ryb2tlOiMwMzgwNDg7c3Ryb2tlLXdpZHRoOjEuMDsiLz48dGV4dCBmaWxsPSIjMDAwMDAwIiBmb250LWZhbWlseT0ic2Fucy1zZXJpZiIgZm9udC1zaXplPSIxNCIgbGVuZ3RoQWRqdXN0PSJzcGFjaW5nIiB0ZXh0TGVuZ3RoPSIxNTUiIHg9IjI3IiB5PSIxMDYxLjIxODgiPnBheW1lbnRfc3RhdHVzOiBzdHJpbmc8L3RleHQ+PGVsbGlwc2UgY3g9IjE4IiBjeT0iMTA3MS45NjA5IiBmaWxsPSJub25lIiByeD0iMyIgcnk9IjMiIHN0eWxlPSJzdHJva2U6IzAzODA0ODtzdHJva2Utd2lkdGg6MS4wOyIvPjx0ZXh0IGZpbGw9IiMwMDAwMDAiIGZvbnQtZmFtaWx5PSJzYW5zLXNlcmlmIiBmb250LXNpemU9IjE0IiBsZW5ndGhBZGp1c3Q9InNwYWNpbmciIHRleHRMZW5ndGg9IjE1NiIgeD0iMjciIHk9IjEwNzYuMjAzMSI+cGF5bWVudF9tZXRob2Q6IHN0cmluZzwvdGV4dD48ZWxsaXBzZSBjeD0iMTgiIGN5PSIxMDg2Ljk0NTMiIGZpbGw9Im5vbmUiIHJ4PSIzIiByeT0iMyIgc3R5bGU9InN0cm9rZTojMDM4MDQ4O3N0cm9rZS13aWR0aDoxLjA7Ii8+PHRleHQgZmlsbD0iIzAwMDAwMCIgZm9udC1mYW1pbHk9InNhbnMtc2VyaWYiIGZvbnQtc2l6ZT0iMTQiIGxlbmd0aEFkanVzdD0ic3BhY2luZyIgdGV4dExlbmd0aD0iMTU0IiB4PSIyNyIgeT0iMTA5MS4xODc1Ij50cmFuc2FjdGlvbl9pZDogc3RyaW5nPC90ZXh0PjxlbGxpcHNlIGN4PSIxOCIgY3k9IjExMDEuOTI5NyIgZmlsbD0ibm9uZSIgcng9IjMiIHJ5PSIzIiBzdHlsZT0ic3Ryb2tlOiMwMzgwNDg7c3Ryb2tlLXdpZHRoOjEuMDsiLz48dGV4dCBmaWxsPSIjMDAwMDAwIiBmb250LWZhbWlseT0ic2Fucy1zZXJpZiIgZm9udC1zaXplPSIxNCIgbGVuZ3RoQWRqdXN0PSJzcGFjaW5nIiB0ZXh0TGVuZ3RoPSIxMTkiIHg9IjI3IiB5PSIxMTA2LjE3MTkiPmNoZXF1ZV9ubzogc3RyaW5nPC90ZXh0PjxlbGxpcHNlIGN4PSIxOCIgY3k9IjExMTYuOTE0MSIgZmlsbD0ibm9uZSIgcng9IjMiIHJ5PSIzIiBzdHlsZT0ic3Ryb2tlOiMwMzgwNDg7c3Ryb2tlLXdpZHRoOjEuMDsiLz48dGV4dCBmaWxsPSIjMDAwMDAwIiBmb250LWZhbWlseT0ic2Fucy1zZXJpZiIgZm9udC1zaXplPSIxNCIgbGVuZ3RoQWRqdXN0PSJzcGFjaW5nIiB0ZXh0TGVuZ3RoPSIxMjYiIHg9IjI3IiB5PSIxMTIxLjE1NjMiPmFjY291bnRfbm86IHN0cmluZzwvdGV4dD48ZWxsaXBzZSBjeD0iMTgiIGN5PSIxMTMxLjg5ODQiIGZpbGw9Im5vbmUiIHJ4PSIzIiByeT0iMyIgc3R5bGU9InN0cm9rZTojMDM4MDQ4O3N0cm9rZS13aWR0aDoxLjA7Ii8+PHRleHQgZmlsbD0iIzAwMDAwMCIgZm9udC1mYW1pbHk9InNhbnMtc2VyaWYiIGZvbnQtc2l6ZT0iMTQiIGxlbmd0aEFkanVzdD0ic3BhY2luZyIgdGV4dExlbmd0aD0iNzgiIHg9IjI3IiB5PSIxMTM2LjE0MDYiPmFtb3VudDogaW50PC90ZXh0PjxsaW5lIHN0eWxlPSJzdHJva2U6IzE4MTgxODtzdHJva2Utd2lkdGg6MS4wOyIgeDE9IjgiIHgyPSIxODgiIHkxPSIxMTQxLjg5MDYiIHkyPSIxMTQxLjg5MDYiLz48ZWxsaXBzZSBjeD0iMTgiIGN5PSIxMTU0Ljg4MjgiIGZpbGw9Im5vbmUiIHJ4PSIzIiByeT0iMyIgc3R5bGU9InN0cm9rZTojMDM4MDQ4O3N0cm9rZS13aWR0aDoxLjA7Ii8+PHRleHQgZmlsbD0iIzAwMDAwMCIgZm9udC1mYW1pbHk9InNhbnMtc2VyaWYiIGZvbnQtc2l6ZT0iMTQiIGxlbmd0aEFkanVzdD0ic3BhY2luZyIgdGV4dExlbmd0aD0iMTA1IiB4PSIyNyIgeT0iMTE1OS4xMjUiPmJvb2tpbmdfaWQ6IGludDwvdGV4dD48L2c+PCEtLWNsYXNzIFByb3BlcnR5Q29tcGxhaW4tLT48ZyBpZD0iZWxlbV9Qcm9wZXJ0eUNvbXBsYWluIj48cmVjdCBjb2RlTGluZT0iODkiIGZpbGw9IiNGMUYxRjEiIGhlaWdodD0iMTM3LjkwNjMiIGlkPSJQcm9wZXJ0eUNvbXBsYWluIiByeD0iMi41IiByeT0iMi41IiBzdHlsZT0ic3Ryb2tlOiMxODE4MTg7c3Ryb2tlLXdpZHRoOjAuNTsiIHdpZHRoPSIxNjciIHg9IjM5MC41IiB5PSI3OTAuNSIvPjxlbGxpcHNlIGN4PSI0MTUuNCIgY3k9IjgwNi41IiBmaWxsPSIjQUREMUIyIiByeD0iMTEiIHJ5PSIxMSIgc3R5bGU9InN0cm9rZTojMTgxODE4O3N0cm9rZS13aWR0aDoxLjA7Ii8+PHBhdGggZD0iTTQxOS4wMjUsODEyLjUgTDQxOS4wMjUsODEwLjc1IEw0MTMuNzEyNSw4MTAuNzUgUTQxMy43MTI1LDgxMC43NSA0MTMuNzEyNSw4MDcuMTg3NSBMNDE3Ljk2MjUsODA3LjE4NzUgTDQxNy45NjI1LDgwNS40Mzc1IEw0MTMuNzEyNSw4MDUuNDM3NSBMNDEzLjcxMjUsODAyLjkzNzUgTDQxOS4wMjUsODAyLjkzNzUgTDQxOS4wMjUsODAxLjE4NzUgTDQxMS45NjI1LDgwMS4xODc1IFE0MTEuOTYyNSw4MDEuMTg3NSA0MTEuOTYyNSw4MTIuNSBMNDE5LjAyNSw4MTIuNSBaICIgZmlsbD0iIzAwMDAwMCIvPjx0ZXh0IGZpbGw9IiMwMDAwMDAiIGZvbnQtZmFtaWx5PSJzYW5zLXNlcmlmIiBmb250LXNpemU9IjE0IiBsZW5ndGhBZGp1c3Q9InNwYWNpbmciIHRleHRMZW5ndGg9IjExMyIgeD0iNDMxLjYiIHk9IjgxMi4yNDIyIj5Qcm9wZXJ0eUNvbXBsYWluPC90ZXh0PjxsaW5lIHN0eWxlPSJzdHJva2U6IzE4MTgxODtzdHJva2Utd2lkdGg6MC41OyIgeDE9IjM5MS41IiB4Mj0iNTU2LjUiIHkxPSI4MjIuNSIgeTI9IjgyMi41Ii8+PGVsbGlwc2UgY3g9IjQwMS41IiBjeT0iODM1LjQ5MjIiIGZpbGw9Im5vbmUiIHJ4PSIzIiByeT0iMyIgc3R5bGU9InN0cm9rZTojMDM4MDQ4O3N0cm9rZS13aWR0aDoxLjA7Ii8+PHRleHQgZmlsbD0iIzAwMDAwMCIgZm9udC1mYW1pbHk9InNhbnMtc2VyaWYiIGZvbnQtc2l6ZT0iMTQiIGxlbmd0aEFkanVzdD0ic3BhY2luZyIgdGV4dC1kZWNvcmF0aW9uPSJ1bmRlcmxpbmUiIHRleHRMZW5ndGg9IjE0IiB4PSI0MTAuNSIgeT0iODM5LjczNDQiPmlkPC90ZXh0Pjx0ZXh0IGZpbGw9IiMwMDAwMDAiIGZvbnQtZmFtaWx5PSJzYW5zLXNlcmlmIiBmb250LXNpemU9IjE0IiBsZW5ndGhBZGp1c3Q9InNwYWNpbmciIHRleHRMZW5ndGg9IjM1IiB4PSI0MjQuNSIgeT0iODM5LjczNDQiPjogaW50PC90ZXh0PjxlbGxpcHNlIGN4PSI0MDEuNSIgY3k9Ijg1MC40NzY2IiBmaWxsPSJub25lIiByeD0iMyIgcnk9IjMiIHN0eWxlPSJzdHJva2U6IzAzODA0ODtzdHJva2Utd2lkdGg6MS4wOyIvPjx0ZXh0IGZpbGw9IiMwMDAwMDAiIGZvbnQtZmFtaWx5PSJzYW5zLXNlcmlmIiBmb250LXNpemU9IjE0IiBsZW5ndGhBZGp1c3Q9InNwYWNpbmciIHRleHRMZW5ndGg9IjExMyIgeD0iNDEwLjUiIHk9Ijg1NC43MTg4Ij5jb21wbGFpbjogc3RyaW5nPC90ZXh0PjxlbGxpcHNlIGN4PSI0MDEuNSIgY3k9Ijg2NS40NjA5IiBmaWxsPSJub25lIiByeD0iMyIgcnk9IjMiIHN0eWxlPSJzdHJva2U6IzAzODA0ODtzdHJva2Utd2lkdGg6MS4wOyIvPjx0ZXh0IGZpbGw9IiMwMDAwMDAiIGZvbnQtZmFtaWx5PSJzYW5zLXNlcmlmIiBmb250LXNpemU9IjE0IiBsZW5ndGhBZGp1c3Q9InNwYWNpbmciIHRleHRMZW5ndGg9IjExMiIgeD0iNDEwLjUiIHk9Ijg2OS43MDMxIj5yZXNwb25zZTogc3RyaW5nPC90ZXh0PjxlbGxpcHNlIGN4PSI0MDEuNSIgY3k9Ijg4MC40NDUzIiBmaWxsPSJub25lIiByeD0iMyIgcnk9IjMiIHN0eWxlPSJzdHJva2U6IzAzODA0ODtzdHJva2Utd2lkdGg6MS4wOyIvPjx0ZXh0IGZpbGw9IiMwMDAwMDAiIGZvbnQtZmFtaWx5PSJzYW5zLXNlcmlmIiBmb250LXNpemU9IjE0IiBsZW5ndGhBZGp1c3Q9InNwYWNpbmciIHRleHRMZW5ndGg9IjE0MSIgeD0iNDEwLjUiIHk9Ijg4NC42ODc1Ij5pc19hbnN3ZXJlZDogYm9vbGVhbjwvdGV4dD48bGluZSBzdHlsZT0ic3Ryb2tlOiMxODE4MTg7c3Ryb2tlLXdpZHRoOjEuMDsiIHgxPSIzOTEuNSIgeDI9IjU1Ni41IiB5MT0iODkwLjQzNzUiIHkyPSI4OTAuNDM3NSIvPjxlbGxpcHNlIGN4PSI0MDEuNSIgY3k9IjkwMy40Mjk3IiBmaWxsPSJub25lIiByeD0iMyIgcnk9IjMiIHN0eWxlPSJzdHJva2U6IzAzODA0ODtzdHJva2Utd2lkdGg6MS4wOyIvPjx0ZXh0IGZpbGw9IiMwMDAwMDAiIGZvbnQtZmFtaWx5PSJzYW5zLXNlcmlmIiBmb250LXNpemU9IjE0IiBsZW5ndGhBZGp1c3Q9InNwYWNpbmciIHRleHRMZW5ndGg9IjExMiIgeD0iNDEwLjUiIHk9IjkwNy42NzE5Ij5wcm9wZXJ0eV9pZDogaW50PC90ZXh0PjxlbGxpcHNlIGN4PSI0MDEuNSIgY3k9IjkxOC40MTQxIiBmaWxsPSJub25lIiByeD0iMyIgcnk9IjMiIHN0eWxlPSJzdHJva2U6IzAzODA0ODtzdHJva2Utd2lkdGg6MS4wOyIvPjx0ZXh0IGZpbGw9IiMwMDAwMDAiIGZvbnQtZmFtaWx5PSJzYW5zLXNlcmlmIiBmb250LXNpemU9IjE0IiBsZW5ndGhBZGp1c3Q9InNwYWNpbmciIHRleHRMZW5ndGg9Ijg0IiB4PSI0MTAuNSIgeT0iOTIyLjY1NjMiPnVzZXJfaWQ6IGludDwvdGV4dD48L2c+PCEtLWNsYXNzIFByb3BlcnR5RW5xdWlyeS0tPjxnIGlkPSJlbGVtX1Byb3BlcnR5RW5xdWlyeSI+PHJlY3QgY29kZUxpbmU9Ijk5IiBmaWxsPSIjRjFGMUYxIiBoZWlnaHQ9IjE1Mi44OTA2IiBpZD0iUHJvcGVydHlFbnF1aXJ5IiByeD0iMi41IiByeT0iMi41IiBzdHlsZT0ic3Ryb2tlOiMxODE4MTg7c3Ryb2tlLXdpZHRoOjAuNTsiIHdpZHRoPSIxNjciIHg9IjU5Mi41IiB5PSI3ODMiLz48ZWxsaXBzZSBjeD0iNjIxIiBjeT0iNzk5IiBmaWxsPSIjQUREMUIyIiByeD0iMTEiIHJ5PSIxMSIgc3R5bGU9InN0cm9rZTojMTgxODE4O3N0cm9rZS13aWR0aDoxLjA7Ii8+PHBhdGggZD0iTTYyNC42MjUsODA1IEw2MjQuNjI1LDgwMy4yNSBMNjE5LjMxMjUsODAzLjI1IFE2MTkuMzEyNSw4MDMuMjUgNjE5LjMxMjUsNzk5LjY4NzUgTDYyMy41NjI1LDc5OS42ODc1IEw2MjMuNTYyNSw3OTcuOTM3NSBMNjE5LjMxMjUsNzk3LjkzNzUgTDYxOS4zMTI1LDc5NS40Mzc1IEw2MjQuNjI1LDc5NS40Mzc1IEw2MjQuNjI1LDc5My42ODc1IEw2MTcuNTYyNSw3OTMuNjg3NSBRNjE3LjU2MjUsNzkzLjY4NzUgNjE3LjU2MjUsODA1IEw2MjQuNjI1LDgwNSBaICIgZmlsbD0iIzAwMDAwMCIvPjx0ZXh0IGZpbGw9IiMwMDAwMDAiIGZvbnQtZmFtaWx5PSJzYW5zLXNlcmlmIiBmb250LXNpemU9IjE0IiBsZW5ndGhBZGp1c3Q9InNwYWNpbmciIHRleHRMZW5ndGg9IjEwNSIgeD0iNjM4IiB5PSI4MDQuNzQyMiI+UHJvcGVydHlFbnF1aXJ5PC90ZXh0PjxsaW5lIHN0eWxlPSJzdHJva2U6IzE4MTgxODtzdHJva2Utd2lkdGg6MC41OyIgeDE9IjU5My41IiB4Mj0iNzU4LjUiIHkxPSI4MTUiIHkyPSI4MTUiLz48ZWxsaXBzZSBjeD0iNjAzLjUiIGN5PSI4MjcuOTkyMiIgZmlsbD0ibm9uZSIgcng9IjMiIHJ5PSIzIiBzdHlsZT0ic3Ryb2tlOiMwMzgwNDg7c3Ryb2tlLXdpZHRoOjEuMDsiLz48dGV4dCBmaWxsPSIjMDAwMDAwIiBmb250LWZhbWlseT0ic2Fucy1zZXJpZiIgZm9udC1zaXplPSIxNCIgbGVuZ3RoQWRqdXN0PSJzcGFjaW5nIiB0ZXh0LWRlY29yYXRpb249InVuZGVybGluZSIgdGV4dExlbmd0aD0iMTQiIHg9IjYxMi41IiB5PSI4MzIuMjM0NCI+aWQ8L3RleHQ+PHRleHQgZmlsbD0iIzAwMDAwMCIgZm9udC1mYW1pbHk9InNhbnMtc2VyaWYiIGZvbnQtc2l6ZT0iMTQiIGxlbmd0aEFkanVzdD0ic3BhY2luZyIgdGV4dExlbmd0aD0iMzUiIHg9IjYyNi41IiB5PSI4MzIuMjM0NCI+OiBpbnQ8L3RleHQ+PGVsbGlwc2UgY3g9IjYwMy41IiBjeT0iODQyLjk3NjYiIGZpbGw9Im5vbmUiIHJ4PSIzIiByeT0iMyIgc3R5bGU9InN0cm9rZTojMDM4MDQ4O3N0cm9rZS13aWR0aDoxLjA7Ii8+PHRleHQgZmlsbD0iIzAwMDAwMCIgZm9udC1mYW1pbHk9InNhbnMtc2VyaWYiIGZvbnQtc2l6ZT0iMTQiIGxlbmd0aEFkanVzdD0ic3BhY2luZyIgdGV4dExlbmd0aD0iMTA2IiB4PSI2MTIuNSIgeT0iODQ3LjIxODgiPm1lc3NhZ2U6IHN0cmluZzwvdGV4dD48ZWxsaXBzZSBjeD0iNjAzLjUiIGN5PSI4NTcuOTYwOSIgZmlsbD0ibm9uZSIgcng9IjMiIHJ5PSIzIiBzdHlsZT0ic3Ryb2tlOiMwMzgwNDg7c3Ryb2tlLXdpZHRoOjEuMDsiLz48dGV4dCBmaWxsPSIjMDAwMDAwIiBmb250LWZhbWlseT0ic2Fucy1zZXJpZiIgZm9udC1zaXplPSIxNCIgbGVuZ3RoQWRqdXN0PSJzcGFjaW5nIiB0ZXh0TGVuZ3RoPSI5OSIgeD0iNjEyLjUiIHk9Ijg2Mi4yMDMxIj5hbnN3ZXI6IHN0cmluZzwvdGV4dD48ZWxsaXBzZSBjeD0iNjAzLjUiIGN5PSI4NzIuOTQ1MyIgZmlsbD0ibm9uZSIgcng9IjMiIHJ5PSIzIiBzdHlsZT0ic3Ryb2tlOiMwMzgwNDg7c3Ryb2tlLXdpZHRoOjEuMDsiLz48dGV4dCBmaWxsPSIjMDAwMDAwIiBmb250LWZhbWlseT0ic2Fucy1zZXJpZiIgZm9udC1zaXplPSIxNCIgbGVuZ3RoQWRqdXN0PSJzcGFjaW5nIiB0ZXh0TGVuZ3RoPSIxNDEiIHg9IjYxMi41IiB5PSI4NzcuMTg3NSI+Y3JlYXRlZF9hdDogZGF0ZXRpbWU8L3RleHQ+PGVsbGlwc2UgY3g9IjYwMy41IiBjeT0iODg3LjkyOTciIGZpbGw9Im5vbmUiIHJ4PSIzIiByeT0iMyIgc3R5bGU9InN0cm9rZTojMDM4MDQ4O3N0cm9rZS13aWR0aDoxLjA7Ii8+PHRleHQgZmlsbD0iIzAwMDAwMCIgZm9udC1mYW1pbHk9InNhbnMtc2VyaWYiIGZvbnQtc2l6ZT0iMTQiIGxlbmd0aEFkanVzdD0ic3BhY2luZyIgdGV4dExlbmd0aD0iMTQxIiB4PSI2MTIuNSIgeT0iODkyLjE3MTkiPmlzX2Fuc3dlcmVkOiBib29sZWFuPC90ZXh0PjxsaW5lIHN0eWxlPSJzdHJva2U6IzE4MTgxODtzdHJva2Utd2lkdGg6MS4wOyIgeDE9IjU5My41IiB4Mj0iNzU4LjUiIHkxPSI4OTcuOTIxOSIgeTI9Ijg5Ny45MjE5Ii8+PGVsbGlwc2UgY3g9IjYwMy41IiBjeT0iOTEwLjkxNDEiIGZpbGw9Im5vbmUiIHJ4PSIzIiByeT0iMyIgc3R5bGU9InN0cm9rZTojMDM4MDQ4O3N0cm9rZS13aWR0aDoxLjA7Ii8+PHRleHQgZmlsbD0iIzAwMDAwMCIgZm9udC1mYW1pbHk9InNhbnMtc2VyaWYiIGZvbnQtc2l6ZT0iMTQiIGxlbmd0aEFkanVzdD0ic3BhY2luZyIgdGV4dExlbmd0aD0iMTEyIiB4PSI2MTIuNSIgeT0iOTE1LjE1NjMiPnByb3BlcnR5X2lkOiBpbnQ8L3RleHQ+PGVsbGlwc2UgY3g9IjYwMy41IiBjeT0iOTI1Ljg5ODQiIGZpbGw9Im5vbmUiIHJ4PSIzIiByeT0iMyIgc3R5bGU9InN0cm9rZTojMDM4MDQ4O3N0cm9rZS13aWR0aDoxLjA7Ii8+PHRleHQgZmlsbD0iIzAwMDAwMCIgZm9udC1mYW1pbHk9InNhbnMtc2VyaWYiIGZvbnQtc2l6ZT0iMTQiIGxlbmd0aEFkanVzdD0ic3BhY2luZyIgdGV4dExlbmd0aD0iOTEiIHg9IjYxMi41IiB5PSI5MzAuMTQwNiI+YnV5ZXJfaWQ6IGludDwvdGV4dD48L2c+PCEtLWNsYXNzIENvbnRhY3QtLT48ZyBpZD0iZWxlbV9Db250YWN0Ij48cmVjdCBjb2RlTGluZT0iMTEwIiBmaWxsPSIjRjFGMUYxIiBoZWlnaHQ9IjEzNy45MDYzIiBpZD0iQ29udGFjdCIgcng9IjIuNSIgcnk9IjIuNSIgc3R5bGU9InN0cm9rZTojMTgxODE4O3N0cm9rZS13aWR0aDowLjU7IiB3aWR0aD0iMTM4IiB4PSI0MzIiIHk9IjciLz48ZWxsaXBzZSBjeD0iNDcyLjY1IiBjeT0iMjMiIGZpbGw9IiNBREQxQjIiIHJ4PSIxMSIgcnk9IjExIiBzdHlsZT0ic3Ryb2tlOiMxODE4MTg7c3Ryb2tlLXdpZHRoOjEuMDsiLz48cGF0aCBkPSJNNDc2LjI3NSwyOSBMNDc2LjI3NSwyNy4yNSBMNDcwLjk2MjUsMjcuMjUgUTQ3MC45NjI1LDI3LjI1IDQ3MC45NjI1LDIzLjY4NzUgTDQ3NS4yMTI1LDIzLjY4NzUgTDQ3NS4yMTI1LDIxLjkzNzUgTDQ3MC45NjI1LDIxLjkzNzUgTDQ3MC45NjI1LDE5LjQzNzUgTDQ3Ni4yNzUsMTkuNDM3NSBMNDc2LjI3NSwxNy42ODc1IEw0NjkuMjEyNSwxNy42ODc1IFE0NjkuMjEyNSwxNy42ODc1IDQ2OS4yMTI1LDI5IEw0NzYuMjc1LDI5IFogIiBmaWxsPSIjMDAwMDAwIi8+PHRleHQgZmlsbD0iIzAwMDAwMCIgZm9udC1mYW1pbHk9InNhbnMtc2VyaWYiIGZvbnQtc2l6ZT0iMTQiIGxlbmd0aEFkanVzdD0ic3BhY2luZyIgdGV4dExlbmd0aD0iNDkiIHg9IjQ5Mi4zNSIgeT0iMjguNzQyMiI+Q29udGFjdDwvdGV4dD48bGluZSBzdHlsZT0ic3Ryb2tlOiMxODE4MTg7c3Ryb2tlLXdpZHRoOjAuNTsiIHgxPSI0MzMiIHgyPSI1NjkiIHkxPSIzOSIgeTI9IjM5Ii8+PGVsbGlwc2UgY3g9IjQ0MyIgY3k9IjUxLjk5MjIiIGZpbGw9Im5vbmUiIHJ4PSIzIiByeT0iMyIgc3R5bGU9InN0cm9rZTojMDM4MDQ4O3N0cm9rZS13aWR0aDoxLjA7Ii8+PHRleHQgZmlsbD0iIzAwMDAwMCIgZm9udC1mYW1pbHk9InNhbnMtc2VyaWYiIGZvbnQtc2l6ZT0iMTQiIGxlbmd0aEFkanVzdD0ic3BhY2luZyIgdGV4dC1kZWNvcmF0aW9uPSJ1bmRlcmxpbmUiIHRleHRMZW5ndGg9IjE0IiB4PSI0NTIiIHk9IjU2LjIzNDQiPmlkPC90ZXh0Pjx0ZXh0IGZpbGw9IiMwMDAwMDAiIGZvbnQtZmFtaWx5PSJzYW5zLXNlcmlmIiBmb250LXNpemU9IjE0IiBsZW5ndGhBZGp1c3Q9InNwYWNpbmciIHRleHRMZW5ndGg9IjM1IiB4PSI0NjYiIHk9IjU2LjIzNDQiPjogaW50PC90ZXh0PjxlbGxpcHNlIGN4PSI0NDMiIGN5PSI2Ni45NzY2IiBmaWxsPSJub25lIiByeD0iMyIgcnk9IjMiIHN0eWxlPSJzdHJva2U6IzAzODA0ODtzdHJva2Utd2lkdGg6MS4wOyIvPjx0ZXh0IGZpbGw9IiMwMDAwMDAiIGZvbnQtZmFtaWx5PSJzYW5zLXNlcmlmIiBmb250LXNpemU9IjE0IiBsZW5ndGhBZGp1c3Q9InNwYWNpbmciIHRleHRMZW5ndGg9IjkyIiB4PSI0NTIiIHk9IjcxLjIxODgiPmVtYWlsOiBzdHJpbmc8L3RleHQ+PGVsbGlwc2UgY3g9IjQ0MyIgY3k9IjgxLjk2MDkiIGZpbGw9Im5vbmUiIHJ4PSIzIiByeT0iMyIgc3R5bGU9InN0cm9rZTojMDM4MDQ4O3N0cm9rZS13aWR0aDoxLjA7Ii8+PHRleHQgZmlsbD0iIzAwMDAwMCIgZm9udC1mYW1pbHk9InNhbnMtc2VyaWYiIGZvbnQtc2l6ZT0iMTQiIGxlbmd0aEFkanVzdD0ic3BhY2luZyIgdGV4dExlbmd0aD0iMTA1IiB4PSI0NTIiIHk9Ijg2LjIwMzEiPnN1YmplY3Q6IHN0cmluZzwvdGV4dD48ZWxsaXBzZSBjeD0iNDQzIiBjeT0iOTYuOTQ1MyIgZmlsbD0ibm9uZSIgcng9IjMiIHJ5PSIzIiBzdHlsZT0ic3Ryb2tlOiMwMzgwNDg7c3Ryb2tlLXdpZHRoOjEuMDsiLz48dGV4dCBmaWxsPSIjMDAwMDAwIiBmb250LWZhbWlseT0ic2Fucy1zZXJpZiIgZm9udC1zaXplPSIxNCIgbGVuZ3RoQWRqdXN0PSJzcGFjaW5nIiB0ZXh0TGVuZ3RoPSIxMDYiIHg9IjQ1MiIgeT0iMTAxLjE4NzUiPm1lc3NhZ2U6IHN0cmluZzwvdGV4dD48ZWxsaXBzZSBjeD0iNDQzIiBjeT0iMTExLjkyOTciIGZpbGw9Im5vbmUiIHJ4PSIzIiByeT0iMyIgc3R5bGU9InN0cm9rZTojMDM4MDQ4O3N0cm9rZS13aWR0aDoxLjA7Ii8+PHRleHQgZmlsbD0iIzAwMDAwMCIgZm9udC1mYW1pbHk9InNhbnMtc2VyaWYiIGZvbnQtc2l6ZT0iMTQiIGxlbmd0aEFkanVzdD0ic3BhY2luZyIgdGV4dExlbmd0aD0iOTkiIHg9IjQ1MiIgeT0iMTE2LjE3MTkiPmRhdGU6IGRhdGV0aW1lPC90ZXh0PjxlbGxpcHNlIGN4PSI0NDMiIGN5PSIxMjYuOTE0MSIgZmlsbD0ibm9uZSIgcng9IjMiIHJ5PSIzIiBzdHlsZT0ic3Ryb2tlOiMwMzgwNDg7c3Ryb2tlLXdpZHRoOjEuMDsiLz48dGV4dCBmaWxsPSIjMDAwMDAwIiBmb250LWZhbWlseT0ic2Fucy1zZXJpZiIgZm9udC1zaXplPSIxNCIgbGVuZ3RoQWRqdXN0PSJzcGFjaW5nIiB0ZXh0TGVuZ3RoPSIxMTIiIHg9IjQ1MiIgeT0iMTMxLjE1NjMiPnJlc3BvbnNlOiBzdHJpbmc8L3RleHQ+PGxpbmUgc3R5bGU9InN0cm9rZTojMTgxODE4O3N0cm9rZS13aWR0aDowLjU7IiB4MT0iNDMzIiB4Mj0iNTY5IiB5MT0iMTM2LjkwNjMiIHkyPSIxMzYuOTA2MyIvPjwvZz48IS0tbGluayBVc2VyIHRvIFByb2ZpbGUtLT48ZyBpZD0ibGlua19Vc2VyX1Byb2ZpbGUiPjxwYXRoIGNvZGVMaW5lPSIxMTkiIGQ9Ik05OCwzNTEuMjYgQzk4LDM5MS4xMSA5OCw0MzkuOTIgOTgsNDc5LjgzICIgZmlsbD0ibm9uZSIgaWQ9IlVzZXItUHJvZmlsZSIgc3R5bGU9InN0cm9rZTojMTgxODE4O3N0cm9rZS13aWR0aDoxLjA7Ii8+PGxpbmUgc3R5bGU9InN0cm9rZTojMTgxODE4O3N0cm9rZS13aWR0aDoxLjA7IiB4MT0iOTQiIHgyPSIxMDIiIHkxPSIzNDguMDIiIHkyPSIzNDguMDIiLz48bGluZSBzdHlsZT0ic3Ryb2tlOiMxODE4MTg7c3Ryb2tlLXdpZHRoOjEuMDsiIHgxPSI5NCIgeDI9IjEwMiIgeTE9IjM1MS4wMiIgeTI9IjM1MS4wMiIvPjxsaW5lIHN0eWxlPSJzdHJva2U6IzE4MTgxODtzdHJva2Utd2lkdGg6MS4wOyIgeDE9Ijk4IiB4Mj0iOTgiIHkxPSIzNTIuMDIiIHkyPSIzNDQuMDIiLz48bGluZSBzdHlsZT0ic3Ryb2tlOiMxODE4MTg7c3Ryb2tlLXdpZHRoOjEuMDsiIHgxPSIxMDIiIHgyPSI5NCIgeTE9IjQ4My4xOCIgeTI9IjQ4My4xOCIvPjxsaW5lIHN0eWxlPSJzdHJva2U6IzE4MTgxODtzdHJva2Utd2lkdGg6MS4wOyIgeDE9IjEwMiIgeDI9Ijk0IiB5MT0iNDgwLjE4IiB5Mj0iNDgwLjE4Ii8+PGxpbmUgc3R5bGU9InN0cm9rZTojMTgxODE4O3N0cm9rZS13aWR0aDoxLjA7IiB4MT0iOTgiIHgyPSI5OCIgeTE9IjQ3OS4xOCIgeTI9IjQ4Ny4xOCIvPjwvZz48IS0tbGluayBEaXZpc2lvbiB0byBDaXR5LS0+PGcgaWQ9ImxpbmtfRGl2aXNpb25fQ2l0eSI+PHBhdGggY29kZUxpbmU9IjEyMCIgZD0iTTM0MSwxMjMuNjggQzM0MSwxNTIuNjEgMzQxLDE4OS44OCAzNDEsMjIwLjA3ICIgZmlsbD0ibm9uZSIgaWQ9IkRpdmlzaW9uLUNpdHkiIHN0eWxlPSJzdHJva2U6IzE4MTgxODtzdHJva2Utd2lkdGg6MS4wOyIvPjxsaW5lIHN0eWxlPSJzdHJva2U6IzE4MTgxODtzdHJva2Utd2lkdGg6MS4wOyIgeDE9IjMzNyIgeDI9IjM0NSIgeTE9IjExOS40NSIgeTI9IjExOS40NSIvPjxsaW5lIHN0eWxlPSJzdHJva2U6IzE4MTgxODtzdHJva2Utd2lkdGg6MS4wOyIgeDE9IjMzNyIgeDI9IjM0NSIgeTE9IjEyMi40NSIgeTI9IjEyMi40NSIvPjxsaW5lIHN0eWxlPSJzdHJva2U6IzE4MTgxODtzdHJva2Utd2lkdGg6MS4wOyIgeDE9IjM0MSIgeDI9IjM0MSIgeTE9IjEyMy40NSIgeTI9IjExNS40NSIvPjxsaW5lIHN0eWxlPSJzdHJva2U6IzE4MTgxODtzdHJva2Utd2lkdGg6MS4wOyIgeDE9IjM0MSIgeDI9IjM0NyIgeTE9IjIyMC4zOSIgeTI9IjIyOC4zOSIvPjxsaW5lIHN0eWxlPSJzdHJva2U6IzE4MTgxODtzdHJva2Utd2lkdGg6MS4wOyIgeDE9IjM0MSIgeDI9IjMzNSIgeTE9IjIyMC4zOSIgeTI9IjIyOC4zOSIvPjxsaW5lIHN0eWxlPSJzdHJva2U6IzE4MTgxODtzdHJva2Utd2lkdGg6MS4wOyIgeDE9IjM0MSIgeDI9IjM0MSIgeTE9IjIyMC4zOSIgeTI9IjIyOC4zOSIvPjxlbGxpcHNlIGN4PSIzNDEiIGN5PSIyMTQuMzkiIGZpbGw9Im5vbmUiIHJ4PSI0IiByeT0iNCIgc3R5bGU9InN0cm9rZTojMTgxODE4O3N0cm9rZS13aWR0aDoxLjA7Ii8+PC9nPjwhLS1saW5rIENpdHkgdG8gUHJvcGVydHktLT48ZyBpZD0ibGlua19DaXR5X1Byb3BlcnR5Ij48cGF0aCBjb2RlTGluZT0iMTIxIiBkPSJNMzY1LjMxLDMyOS4wOCBDMzc0LjQ1LDM0OS4wMyAzODUuMzcsMzcyLjg4IDM5Ni42NCwzOTcuNSAiIGZpbGw9Im5vbmUiIGlkPSJDaXR5LVByb3BlcnR5IiBzdHlsZT0ic3Ryb2tlOiMxODE4MTg7c3Ryb2tlLXdpZHRoOjEuMDsiLz48bGluZSBzdHlsZT0ic3Ryb2tlOiMxODE4MTg7c3Ryb2tlLXdpZHRoOjEuMDsiIHgxPSIzNTkuODc3OCIgeDI9IjM2Ny4xNTE5IiB5MT0iMzI2LjgzMTkiIHkyPSIzMjMuNTAyMiIvPjxsaW5lIHN0eWxlPSJzdHJva2U6IzE4MTgxODtzdHJva2Utd2lkdGg6MS4wOyIgeDE9IjM2MS4xMjY1IiB4Mj0iMzY4LjQwMDYiIHkxPSIzMjkuNTU5NyIgeTI9IjMyNi4yMjk5Ii8+PGxpbmUgc3R5bGU9InN0cm9rZTojMTgxODE4O3N0cm9rZS13aWR0aDoxLjA7IiB4MT0iMzY1LjE3OTgiIHgyPSIzNjEuODUiIHkxPSIzMjguODA0MSIgeTI9IjMyMS41MyIvPjxsaW5lIHN0eWxlPSJzdHJva2U6IzE4MTgxODtzdHJva2Utd2lkdGg6MS4wOyIgeDE9IjM5Ni42NjAyIiB4Mj0iNDA1LjQ0NTYiIHkxPSIzOTcuNTI1OSIgeTI9IjQwMi4zMDI3Ii8+PGxpbmUgc3R5bGU9InN0cm9rZTojMTgxODE4O3N0cm9rZS13aWR0aDoxLjA7IiB4MT0iMzk2LjY2MDIiIHgyPSIzOTQuNTM0NCIgeTE9IjM5Ny41MjU5IiB5Mj0iNDA3LjI5NzMiLz48bGluZSBzdHlsZT0ic3Ryb2tlOiMxODE4MTg7c3Ryb2tlLXdpZHRoOjEuMDsiIHgxPSIzOTYuNjYwMiIgeDI9IjM5OS45OSIgeTE9IjM5Ny41MjU5IiB5Mj0iNDA0LjgiLz48ZWxsaXBzZSBjeD0iMzk0LjE2MjkiIGN5PSIzOTIuMDcwMyIgZmlsbD0ibm9uZSIgcng9IjQiIHJ5PSI0IiBzdHlsZT0ic3Ryb2tlOiMxODE4MTg7c3Ryb2tlLXdpZHRoOjEuMDsiLz48L2c+PCEtLWxpbmsgUHJvcGVydHlUeXBlIHRvIFByb3BlcnR5LS0+PGcgaWQ9ImxpbmtfUHJvcGVydHlUeXBlX1Byb3BlcnR5Ij48cGF0aCBjb2RlTGluZT0iMTIyIiBkPSJNNTE0LjI1LDMyOS42NiBDNTEwLjMxLDM0OS4zNCA1MDUuNjIsMzcyLjc1IDUwMC43NywzOTYuOTMgIiBmaWxsPSJub25lIiBpZD0iUHJvcGVydHlUeXBlLVByb3BlcnR5IiBzdHlsZT0ic3Ryb2tlOiMxODE4MTg7c3Ryb2tlLXdpZHRoOjEuMDsiLz48bGluZSBzdHlsZT0ic3Ryb2tlOiMxODE4MTg7c3Ryb2tlLXdpZHRoOjEuMDsiIHgxPSI1MTEuMTcyMSIgeDI9IjUxOS4wMTYyIiB5MT0iMzI0LjY2NjIiIHkyPSIzMjYuMjM3OSIvPjxsaW5lIHN0eWxlPSJzdHJva2U6IzE4MTgxODtzdHJva2Utd2lkdGg6MS4wOyIgeDE9IjUxMC41ODI3IiB4Mj0iNTE4LjQyNjgiIHkxPSIzMjcuNjA3NyIgeTI9IjMyOS4xNzk0Ii8+PGxpbmUgc3R5bGU9InN0cm9rZTojMTgxODE4O3N0cm9rZS13aWR0aDoxLjA7IiB4MT0iNTE0LjMwODMiIHgyPSI1MTUuODgiIHkxPSIzMjkuMzc0MSIgeTI9IjMyMS41MyIvPjxsaW5lIHN0eWxlPSJzdHJva2U6IzE4MTgxODtzdHJva2Utd2lkdGg6MS4wOyIgeDE9IjUwMC43NjE3IiB4Mj0iNTA1LjA3MzEiIHkxPSIzOTYuOTU1OSIgeTI9IjQwNS45Nzg4Ii8+PGxpbmUgc3R5bGU9InN0cm9rZTojMTgxODE4O3N0cm9rZS13aWR0aDoxLjA7IiB4MT0iNTAwLjc2MTciIHgyPSI0OTMuMzA2OSIgeTE9IjM5Ni45NTU5IiB5Mj0iNDAzLjYyMTIiLz48bGluZSBzdHlsZT0ic3Ryb2tlOiMxODE4MTg7c3Ryb2tlLXdpZHRoOjEuMDsiIHgxPSI1MDAuNzYxNyIgeDI9IjQ5OS4xOSIgeTE9IjM5Ni45NTU5IiB5Mj0iNDA0LjgiLz48ZWxsaXBzZSBjeD0iNTAxLjk0MDQiIGN5PSIzOTEuMDcyOCIgZmlsbD0ibm9uZSIgcng9IjQiIHJ5PSI0IiBzdHlsZT0ic3Ryb2tlOiMxODE4MTg7c3Ryb2tlLXdpZHRoOjEuMDsiLz48L2c+PCEtLWxpbmsgUHJvcGVydHkgdG8gUHJvcGVydHlJbWFnZS0tPjxnIGlkPSJsaW5rX1Byb3BlcnR5X1Byb3BlcnR5SW1hZ2UiPjxwYXRoIGNvZGVMaW5lPSIxMjMiIGQ9Ik0zNzcuOTUsNzA3LjI2IEMzNTYuMzYsNzQyLjc3IDMzNC43Myw3NzguMzUgMzE3Ljg4LDgwNi4wNiAiIGZpbGw9Im5vbmUiIGlkPSJQcm9wZXJ0eS1Qcm9wZXJ0eUltYWdlIiBzdHlsZT0ic3Ryb2tlOiMxODE4MTg7c3Ryb2tlLXdpZHRoOjEuMDsiLz48bGluZSBzdHlsZT0ic3Ryb2tlOiMxODE4MTg7c3Ryb2tlLXdpZHRoOjEuMDsiIHgxPSIzNzYuODI0NiIgeDI9IjM4My42NjE3IiB5MT0iNzAxLjQxMTciIHkyPSI3MDUuNTY1NCIvPjxsaW5lIHN0eWxlPSJzdHJva2U6IzE4MTgxODtzdHJva2Utd2lkdGg6MS4wOyIgeDE9IjM3NS4yNjY5IiB4Mj0iMzgyLjEwNDEiIHkxPSI3MDMuOTc1NyIgeTI9IjcwOC4xMjk0Ii8+PGxpbmUgc3R5bGU9InN0cm9rZTojMTgxODE4O3N0cm9rZS13aWR0aDoxLjA7IiB4MT0iMzc4LjE2NjMiIHgyPSIzODIuMzIiIHkxPSI3MDYuOTA3MiIgeTI9IjcwMC4wNyIvPjxsaW5lIHN0eWxlPSJzdHJva2U6IzE4MTgxODtzdHJva2Utd2lkdGg6MS4wOyIgeDE9IjMxNy44NiIgeDI9IjMxOC44MjUiIHkxPSI4MDYuMDk2NyIgeTI9IjgxNi4wNSIvPjxsaW5lIHN0eWxlPSJzdHJva2U6IzE4MTgxODtzdHJva2Utd2lkdGg6MS4wOyIgeDE9IjMxNy44NiIgeDI9IjMwOC41NzUiIHkxPSI4MDYuMDk2NyIgeTI9IjgwOS44MSIvPjxsaW5lIHN0eWxlPSJzdHJva2U6IzE4MTgxODtzdHJva2Utd2lkdGg6MS4wOyIgeDE9IjMxNy44NiIgeDI9IjMxMy43IiB5MT0iODA2LjA5NjciIHkyPSI4MTIuOTMiLz48ZWxsaXBzZSBjeD0iMzIwLjk4MDEiIGN5PSI4MDAuOTcxNyIgZmlsbD0ibm9uZSIgcng9IjQiIHJ5PSI0IiBzdHlsZT0ic3Ryb2tlOiMxODE4MTg7c3Ryb2tlLXdpZHRoOjEuMDsiLz48L2c+PCEtLWxpbmsgUHJvcGVydHkgdG8gUHJvcGVydHlCb29raW5nLS0+PGcgaWQ9ImxpbmtfUHJvcGVydHlfUHJvcGVydHlCb29raW5nIj48cGF0aCBjb2RlTGluZT0iMTI0IiBkPSJNMzc2LjAzLDYzMi45MyBDMzE4LjU5LDY3OS41MyAyNDUuMjIsNzM5LjA1IDE4OC4yOCw3ODUuMjUgIiBmaWxsPSJub25lIiBpZD0iUHJvcGVydHktUHJvcGVydHlCb29raW5nIiBzdHlsZT0ic3Ryb2tlOiMxODE4MTg7c3Ryb2tlLXdpZHRoOjEuMDsiLz48bGluZSBzdHlsZT0ic3Ryb2tlOiMxODE4MTg7c3Ryb2tlLXdpZHRoOjEuMDsiIHgxPSIzNzYuODYzNSIgeDI9IjM4MS45MDQ1IiB5MT0iNjI3LjEwNDUiIHkyPSI2MzMuMzE2NSIvPjxsaW5lIHN0eWxlPSJzdHJva2U6IzE4MTgxODtzdHJva2Utd2lkdGg6MS4wOyIgeDE9IjM3NC41MzQiIHgyPSIzNzkuNTc1IiB5MT0iNjI4Ljk5NDkiIHkyPSI2MzUuMjA2OCIvPjxsaW5lIHN0eWxlPSJzdHJva2U6IzE4MTgxODtzdHJva2Utd2lkdGg6MS4wOyIgeDE9IjM3Ni4yNzgiIHgyPSIzODIuNDkiIHkxPSI2MzIuNzMxIiB5Mj0iNjI3LjY5Ii8+PGxpbmUgc3R5bGU9InN0cm9rZTojMTgxODE4O3N0cm9rZS13aWR0aDoxLjA7IiB4MT0iMTg3Ljk5MiIgeDI9IjE4NS41NjA3IiB5MT0iNzg1LjQ4OSIgeTI9Ijc5NS4xODkiLz48bGluZSBzdHlsZT0ic3Ryb2tlOiMxODE4MTg7c3Ryb2tlLXdpZHRoOjEuMDsiIHgxPSIxODcuOTkyIiB4Mj0iMTc3Ljk5OTMiIHkxPSI3ODUuNDg5IiB5Mj0iNzg1Ljg3MSIvPjxsaW5lIHN0eWxlPSJzdHJva2U6IzE4MTgxODtzdHJva2Utd2lkdGg6MS4wOyIgeDE9IjE4Ny45OTIiIHgyPSIxODEuNzgiIHkxPSI3ODUuNDg5IiB5Mj0iNzkwLjUzIi8+PGVsbGlwc2UgY3g9IjE5Mi42NTA5IiBjeT0iNzgxLjcwODMiIGZpbGw9Im5vbmUiIHJ4PSI0IiByeT0iNCIgc3R5bGU9InN0cm9rZTojMTgxODE4O3N0cm9rZS13aWR0aDoxLjA7Ii8+PC9nPjwhLS1saW5rIFByb3BlcnR5Qm9va2luZyB0byBQYXltZW50LS0+PGcgaWQ9ImxpbmtfUHJvcGVydHlCb29raW5nX1BheW1lbnQiPjxwYXRoIGNvZGVMaW5lPSIxMjUiIGQ9Ik05OCw5NDQuMzkgQzk4LDk1OC44OSA5OCw5NzQuMDIgOTgsOTg4LjcgIiBmaWxsPSJub25lIiBpZD0iUHJvcGVydHlCb29raW5nLVBheW1lbnQiIHN0eWxlPSJzdHJva2U6IzE4MTgxODtzdHJva2Utd2lkdGg6MS4wOyIvPjxsaW5lIHN0eWxlPSJzdHJva2U6IzE4MTgxODtzdHJva2Utd2lkdGg6MS4wOyIgeDE9Ijk0IiB4Mj0iMTAyIiB5MT0iOTQwLjA0IiB5Mj0iOTQwLjA0Ii8+PGxpbmUgc3R5bGU9InN0cm9rZTojMTgxODE4O3N0cm9rZS13aWR0aDoxLjA7IiB4MT0iOTQiIHgyPSIxMDIiIHkxPSI5NDMuMDQiIHkyPSI5NDMuMDQiLz48bGluZSBzdHlsZT0ic3Ryb2tlOiMxODE4MTg7c3Ryb2tlLXdpZHRoOjEuMDsiIHgxPSI5OCIgeDI9Ijk4IiB5MT0iOTQ0LjA0IiB5Mj0iOTM2LjA0Ii8+PGxpbmUgc3R5bGU9InN0cm9rZTojMTgxODE4O3N0cm9rZS13aWR0aDoxLjA7IiB4MT0iOTgiIHgyPSIxMDQiIHkxPSI5ODguODEiIHkyPSI5OTYuODEiLz48bGluZSBzdHlsZT0ic3Ryb2tlOiMxODE4MTg7c3Ryb2tlLXdpZHRoOjEuMDsiIHgxPSI5OCIgeDI9IjkyIiB5MT0iOTg4LjgxIiB5Mj0iOTk2LjgxIi8+PGxpbmUgc3R5bGU9InN0cm9rZTojMTgxODE4O3N0cm9rZS13aWR0aDoxLjA7IiB4MT0iOTgiIHgyPSI5OCIgeTE9Ijk4OC44MSIgeTI9Ijk5Ni44MSIvPjxlbGxpcHNlIGN4PSI5OCIgY3k9Ijk4Mi44MSIgZmlsbD0ibm9uZSIgcng9IjQiIHJ5PSI0IiBzdHlsZT0ic3Ryb2tlOiMxODE4MTg7c3Ryb2tlLXdpZHRoOjEuMDsiLz48L2c+PCEtLWxpbmsgUHJvcGVydHkgdG8gUHJvcGVydHlDb21wbGFpbi0tPjxnIGlkPSJsaW5rX1Byb3BlcnR5X1Byb3BlcnR5Q29tcGxhaW4iPjxwYXRoIGNvZGVMaW5lPSIxMjYiIGQ9Ik00NzEuNjQsNzE2LjUyIEM0NzIuMDIsNzM5LjM5IDQ3Mi40LDc2MS45OSA0NzIuNzMsNzgyLjIxICIgZmlsbD0ibm9uZSIgaWQ9IlByb3BlcnR5LVByb3BlcnR5Q29tcGxhaW4iIHN0eWxlPSJzdHJva2U6IzE4MTgxODtzdHJva2Utd2lkdGg6MS4wOyIvPjxsaW5lIHN0eWxlPSJzdHJva2U6IzE4MTgxODtzdHJva2Utd2lkdGg6MS4wOyIgeDE9IjQ2Ny41ODIxIiB4Mj0iNDc1LjU4MDgiIHkxPSI3MTIuNTEwOCIgeTI9IjcxMi4zNjc5Ii8+PGxpbmUgc3R5bGU9InN0cm9rZTojMTgxODE4O3N0cm9rZS13aWR0aDoxLjA7IiB4MT0iNDY3LjYzNTYiIHgyPSI0NzUuNjM0MyIgeTE9IjcxNS41MTAzIiB5Mj0iNzE1LjM2NzUiLz48bGluZSBzdHlsZT0ic3Ryb2tlOiMxODE4MTg7c3Ryb2tlLXdpZHRoOjEuMDsiIHgxPSI0NzEuNjUyOCIgeDI9IjQ3MS41MSIgeTE9IjcxNi40Mzg3IiB5Mj0iNzA4LjQ0Ii8+PGxpbmUgc3R5bGU9InN0cm9rZTojMTgxODE4O3N0cm9rZS13aWR0aDoxLjA7IiB4MT0iNDcyLjc0MTQiIHgyPSI0NzguODY5MiIgeTE9Ijc4Mi40MzEiIHkyPSI3OTAuMzMzNiIvPjxsaW5lIHN0eWxlPSJzdHJva2U6IzE4MTgxODtzdHJva2Utd2lkdGg6MS4wOyIgeDE9IjQ3Mi43NDE0IiB4Mj0iNDY2Ljg3MDgiIHkxPSI3ODIuNDMxIiB5Mj0iNzkwLjUyNjQiLz48bGluZSBzdHlsZT0ic3Ryb2tlOiMxODE4MTg7c3Ryb2tlLXdpZHRoOjEuMDsiIHgxPSI0NzIuNzQxNCIgeDI9IjQ3Mi44NyIgeTE9Ijc4Mi40MzEiIHkyPSI3OTAuNDMiLz48ZWxsaXBzZSBjeD0iNDcyLjY0NSIgY3k9Ijc3Ni40MzE4IiBmaWxsPSJub25lIiByeD0iNCIgcnk9IjQiIHN0eWxlPSJzdHJva2U6IzE4MTgxODtzdHJva2Utd2lkdGg6MS4wOyIvPjwvZz48IS0tbGluayBQcm9wZXJ0eSB0byBQcm9wZXJ0eUVucXVpcnktLT48ZyBpZD0ibGlua19Qcm9wZXJ0eV9Qcm9wZXJ0eUVucXVpcnkiPjxwYXRoIGNvZGVMaW5lPSIxMjciIGQ9Ik01NjAuMjQsNjkwLjE3IEM1ODAuMzgsNzE5LjQ1IDYwMS4xNCw3NDkuNjUgNjE5LjQzLDc3Ni4yNCAiIGZpbGw9Im5vbmUiIGlkPSJQcm9wZXJ0eS1Qcm9wZXJ0eUVucXVpcnkiIHN0eWxlPSJzdHJva2U6IzE4MTgxODtzdHJva2Utd2lkdGg6MS4wOyIvPjxsaW5lIHN0eWxlPSJzdHJva2U6IzE4MTgxODtzdHJva2Utd2lkdGg6MS4wOyIgeDE9IjU1NC41NjMiIHgyPSI1NjEuMTUyOCIgeTE9IjY4OC45NzI4IiB5Mj0iNjg0LjQzNyIvPjxsaW5lIHN0eWxlPSJzdHJva2U6IzE4MTgxODtzdHJva2Utd2lkdGg6MS4wOyIgeDE9IjU1Ni4yNjQiIHgyPSI1NjIuODUzOCIgeTE9IjY5MS40NDQiIHkyPSI2ODYuOTA4MiIvPjxsaW5lIHN0eWxlPSJzdHJva2U6IzE4MTgxODtzdHJva2Utd2lkdGg6MS4wOyIgeDE9IjU2MC4xMjU5IiB4Mj0iNTU1LjU5IiB5MT0iNjg5Ljk5OTgiIHkyPSI2ODMuNDEiLz48bGluZSBzdHlsZT0ic3Ryb2tlOiMxODE4MTg7c3Ryb2tlLXdpZHRoOjEuMDsiIHgxPSI2MTkuNDg0MSIgeDI9IjYyOC45NjI0IiB5MT0iNzc2LjMzMDIiIHkyPSI3NzkuNTE4MSIvPjxsaW5lIHN0eWxlPSJzdHJva2U6IzE4MTgxODtzdHJva2Utd2lkdGg6MS4wOyIgeDE9IjYxOS40ODQxIiB4Mj0iNjE5LjA3NzYiIHkxPSI3NzYuMzMwMiIgeTI9Ijc4Ni4zMjE5Ii8+PGxpbmUgc3R5bGU9InN0cm9rZTojMTgxODE4O3N0cm9rZS13aWR0aDoxLjA7IiB4MT0iNjE5LjQ4NDEiIHgyPSI2MjQuMDIiIHkxPSI3NzYuMzMwMiIgeTI9Ijc4Mi45MiIvPjxlbGxpcHNlIGN4PSI2MTYuMDgyMiIgY3k9Ijc3MS4zODc4IiBmaWxsPSJub25lIiByeD0iNCIgcnk9IjQiIHN0eWxlPSJzdHJva2U6IzE4MTgxODtzdHJva2Utd2lkdGg6MS4wOyIvPjwvZz48IS0tbGluayBQcm9maWxlIHRvIFByb3BlcnR5Qm9va2luZy0tPjxnIGlkPSJsaW5rX1Byb2ZpbGVfUHJvcGVydHlCb29raW5nIj48cGF0aCBjb2RlTGluZT0iMTI4IiBkPSJNOTgsNjMzLjg5IEM5OCw2NzYuODUgOTgsNzMwLjU2IDk4LDc3NC42OCAiIGZpbGw9Im5vbmUiIGlkPSJQcm9maWxlLVByb3BlcnR5Qm9va2luZyIgc3R5bGU9InN0cm9rZTojMTgxODE4O3N0cm9rZS13aWR0aDoxLjA7Ii8+PGxpbmUgc3R5bGU9InN0cm9rZTojMTgxODE4O3N0cm9rZS13aWR0aDoxLjA7IiB4MT0iOTQiIHgyPSIxMDIiIHkxPSI2MjkuOCIgeTI9IjYyOS44Ii8+PGxpbmUgc3R5bGU9InN0cm9rZTojMTgxODE4O3N0cm9rZS13aWR0aDoxLjA7IiB4MT0iOTQiIHgyPSIxMDIiIHkxPSI2MzIuOCIgeTI9IjYzMi44Ii8+PGxpbmUgc3R5bGU9InN0cm9rZTojMTgxODE4O3N0cm9rZS13aWR0aDoxLjA7IiB4MT0iOTgiIHgyPSI5OCIgeTE9IjYzMy44IiB5Mj0iNjI1LjgiLz48bGluZSBzdHlsZT0ic3Ryb2tlOiMxODE4MTg7c3Ryb2tlLXdpZHRoOjEuMDsiIHgxPSI5OCIgeDI9IjEwNCIgeTE9Ijc3NC44IiB5Mj0iNzgyLjgiLz48bGluZSBzdHlsZT0ic3Ryb2tlOiMxODE4MTg7c3Ryb2tlLXdpZHRoOjEuMDsiIHgxPSI5OCIgeDI9IjkyIiB5MT0iNzc0LjgiIHkyPSI3ODIuOCIvPjxsaW5lIHN0eWxlPSJzdHJva2U6IzE4MTgxODtzdHJva2Utd2lkdGg6MS4wOyIgeDE9Ijk4IiB4Mj0iOTgiIHkxPSI3NzQuOCIgeTI9Ijc4Mi44Ii8+PGVsbGlwc2UgY3g9Ijk4IiBjeT0iNzY4LjgiIGZpbGw9Im5vbmUiIHJ4PSI0IiByeT0iNCIgc3R5bGU9InN0cm9rZTojMTgxODE4O3N0cm9rZS13aWR0aDoxLjA7Ii8+PHRleHQgZmlsbD0iIzAwMDAwMCIgZm9udC1mYW1pbHk9InNhbnMtc2VyaWYiIGZvbnQtc2l6ZT0iMTMiIGxlbmd0aEFkanVzdD0ic3BhY2luZyIgdGV4dExlbmd0aD0iNTUiIHg9Ijk5IiB5PSI3NTEuMjg5MSI+YnV5ZXJfaWQ8L3RleHQ+PC9nPjwhLS1TUkM9W2RMUjFSamltM0J0eEF1SFVZczN0ZUVZWHNHd3h6UjJUM0xiYzRzc3N2NGZxV3czUGx1LU05Uy1xaEkzTzlMNFU5VjduYUk4MzFaTFVuQ0RGMy12MUkyLTZYVldpWDdXS0pfc3BoZi0gLXpDenhlR3E2ZzJVaGFJdGlYS1VkcEo2MGRWSi1SNXRERzZZYlJYWm9mZnQ3U2RNd2FLbHFKcjUwZkZOZ3g5ams4MzJCd3BtdmdQSmozUFB1d0hPNEp6UG1IRFFyMC1fdmhsNy1pakRnWGt6c0stMmJoYVRkQ3U5VnpPVnNzZmgwQ0Z0OEt5cDVVUTNGU0NNbWtGRnVuQXNFUmhWdWFNV1RFQnB5ODRzSVlYRG1qb0NJZi1jVFI2eGJBVHBBTkVJbGZxQ0RseHk2aHZwa2FDOU85NEtoY0FOT1dNSnMyY2ZkUlVsX1JRYWFkWFJHS0pmdlgxY21iTnhqb3loUXRxMFFxZFMzcWVwYmdRYXlRdWI0T2xYNHRLQjBGS2hpX0plUHpjbmNiSEFTN0thYlhkSEhlNTJmcEE5OEpHUlNhemxsQlJiV29XU2FCeHlVcDZsZzR3cVJsYnY4OFpoNGw0S2l4cy1iclFDT2VmaGhFV0M3WVZUWTRiZkhvWDdnS1lCQkc4dnBBODctaWxyUU4tTWJmVk44VmJwZE1OVlpYZEEzVkpBclcyVkItbnV3UVJuS2M3OHNDd2FKbEZURzZpalJLVW5RSXhXVHFDR2NIYmtESWp6QXFDNnNOSUVyT0hiQU8zdk81TlNtM2xINkVjaXlCRHk5SE5XNm5yX0FoTnBhY2NVWXp5c3l6emhudlg2bkZFRU03WjBsT244ajRFRVlSdlZGVnlNSGhRazNES1d2N3BsdWtDdUpOcXo2dHJVX0cyNzNqaUJSUTRFaDUxNmhDQ0Fscnp0a1VhcjNpdlg2cXUzUnBwMWRZWjFpOGYxcUJ6WTBvMWNOWGoxbWlqUk84OGZibXFaUm5qVUtGUHdnRHhpWHJhZ0hfWTVpa25WeEFPNV8wRzAwXS0tPjwvZz48L3N2Zz4=;" parent="1" vertex="1">
            <mxGeometry x="-810" y="10" width="766" height="1171" as="geometry" />
          </mxCell>
        </UserObject>
      </root>
    </mxGraphModel>
  </diagram>
</mxfile>
